<svg width="746" height="584" viewBox="0 0 746 584" fill="none" xmlns="http://www.w3.org/2000/svg">
<path d="M299.691 505.452C395.225 505.452 472.671 499.147 472.671 491.369C472.671 483.591 395.225 477.286 299.691 477.286C204.157 477.286 126.712 483.591 126.712 491.369C126.712 499.147 204.157 505.452 299.691 505.452Z" fill="#E6E7E8"/>
<path d="M588.288 359.16H465.289V459.096H588.288V359.16Z" fill="white"/>
<path d="M588.288 460.084H465.289C465.032 460.084 464.785 459.982 464.603 459.801C464.42 459.619 464.318 459.373 464.318 459.116V359.16C464.318 358.903 464.42 358.657 464.603 358.475C464.785 358.294 465.032 358.191 465.289 358.191H588.288C588.544 358.196 588.789 358.3 588.97 358.481C589.151 358.661 589.255 358.905 589.26 359.16V459.116C589.255 459.371 589.151 459.615 588.97 459.795C588.789 459.976 588.544 460.079 588.288 460.084ZM466.261 458.147H587.317V360.129H466.28L466.261 458.147Z" fill="#D1D3D4"/>
<path d="M588.288 372.972H465.289C465.032 372.972 464.785 372.87 464.603 372.688C464.42 372.506 464.318 372.26 464.318 372.003C464.318 371.746 464.42 371.5 464.603 371.318C464.785 371.137 465.032 371.035 465.289 371.035H588.288C588.546 371.035 588.793 371.137 588.975 371.318C589.157 371.5 589.26 371.746 589.26 372.003C589.255 372.259 589.151 372.502 588.97 372.683C588.789 372.863 588.544 372.967 588.288 372.972Z" fill="#D1D3D4"/>
<path d="M249.38 172.441C246.728 172.619 244.081 172.017 241.767 170.71C239.454 169.404 237.575 167.449 236.364 165.089C235.153 162.729 234.662 160.066 234.952 157.431C235.242 154.795 236.301 152.302 237.997 150.261C230.577 146.851 226.653 138.095 227.197 129.979C227.741 121.862 232.034 114.482 237.395 108.244C241.805 103.15 247.341 98.5588 253.965 97.2997C255.219 97.1751 256.441 96.8343 257.578 96.2924C258.472 95.6649 259.248 94.8844 259.87 93.9872C264.707 87.8271 270.67 82.1707 278.129 79.6912C285.589 77.2117 294.718 78.6258 299.711 84.689C302.206 82.5286 305.3 81.1747 308.584 80.8065C311.868 80.4383 315.187 81.0731 318.101 82.627C321.015 84.1809 323.388 86.5805 324.904 89.5084C326.421 92.4363 327.011 95.7544 326.595 99.0237C331.85 99.7974 336.778 102.041 340.807 105.493C344.837 108.945 347.803 113.466 349.361 118.531C352.139 128.72 347.418 140.691 337.997 145.515C336.91 146.076 335.608 146.813 335.647 148.014C335.754 148.738 336.079 149.414 336.579 149.951C339.61 154.27 338.094 160.527 334.637 164.44C331.179 168.353 326.012 170.426 321.039 172.402C322.145 173.508 322.883 174.927 323.15 176.467C323.418 178.006 323.203 179.59 322.535 181.003C321.094 183.831 318.851 186.175 316.086 187.744C305.286 194.698 291.921 192.529 279.819 192.78C268.65 193.013 257.558 185.904 250.157 177.845C248.72 176.315 247.574 173.525 249.38 172.441Z" fill="#231F20"/>
<path d="M293.203 193.885C291.261 193.885 289.318 193.885 287.531 193.885C285.006 193.885 282.364 193.768 279.878 193.885C269.738 194.059 258.51 188.383 249.458 178.64C248.821 178.002 248.321 177.243 247.987 176.407C247.653 175.571 247.492 174.677 247.516 173.777C247.505 173.707 247.505 173.635 247.516 173.564C244.9 173.439 242.368 172.609 240.188 171.164C238.007 169.718 236.261 167.71 235.133 165.354C234.005 162.998 233.539 160.38 233.783 157.781C234.028 155.181 234.974 152.696 236.521 150.59C229.819 146.909 225.643 138.599 226.226 129.921C226.711 122.502 230.227 115.005 236.657 107.605C242.251 101.174 247.846 97.4934 253.79 96.3505L254.45 96.2342C255.385 96.1976 256.295 95.9263 257.096 95.4455C257.898 94.9646 258.565 94.2898 259.035 93.4835C265.134 85.735 271.253 80.9697 277.819 78.7808C285.919 76.0882 294.796 77.9672 299.827 83.333C302.475 81.2944 305.658 80.0647 308.992 79.7926C312.326 79.5205 315.668 80.2177 318.613 81.7998C321.558 83.382 323.98 85.7812 325.586 88.7074C327.192 91.6335 327.914 94.9611 327.663 98.2876C332.912 99.2335 337.799 101.598 341.793 105.123C345.787 108.648 348.734 113.198 350.313 118.279C353.265 129.107 348.04 141.524 338.444 146.386C337.473 146.871 336.599 147.413 336.618 147.994C336.715 148.396 336.908 148.769 337.181 149.079L337.356 149.331C340.814 154.212 338.852 161.05 335.258 165.002C331.704 168.481 327.417 171.128 322.71 172.751C323.56 174.02 324.074 175.484 324.203 177.005C324.332 178.526 324.072 180.055 323.448 181.448C321.961 184.435 319.614 186.91 316.708 188.558C309.501 193.207 301.342 193.885 293.203 193.885ZM282.034 191.793C283.879 191.793 285.744 191.793 287.57 191.793C297.283 191.986 307.286 192.199 315.581 186.853C318.195 185.401 320.312 183.201 321.661 180.538C322.264 179.304 322.466 177.913 322.24 176.559C322.013 175.205 321.37 173.955 320.398 172.983C320.271 172.875 320.174 172.737 320.116 172.581C320.058 172.425 320.042 172.256 320.068 172.092C320.095 171.925 320.165 171.768 320.27 171.636C320.376 171.504 320.513 171.401 320.67 171.337C325.216 169.516 330.383 167.462 333.821 163.588C336.91 160.198 338.638 154.387 335.763 150.319L335.589 150.106C335.059 149.497 334.733 148.738 334.656 147.936C334.656 145.999 336.502 145.069 337.531 144.546C346.35 140.013 351.129 128.662 348.409 118.666C346.872 113.808 343.995 109.48 340.106 106.178C336.217 102.875 331.474 100.731 326.42 99.9923C326.169 99.9539 325.943 99.8188 325.79 99.616C325.637 99.4132 325.571 99.1588 325.604 98.9075C325.986 95.8388 325.429 92.7267 324.006 89.9792C322.583 87.2318 320.361 84.9773 317.63 83.5112C314.9 82.0452 311.789 81.4361 308.706 81.7638C305.623 82.0915 302.711 83.3407 300.352 85.3476C300.254 85.4332 300.14 85.498 300.016 85.538C299.893 85.578 299.762 85.5923 299.633 85.5801C299.505 85.5705 299.38 85.5346 299.266 85.4746C299.152 85.4146 299.052 85.3318 298.972 85.2314C294.602 79.9237 286.152 77.9865 278.46 80.5629C272.263 82.6163 266.436 87.1879 260.647 94.5296C259.961 95.5233 259.099 96.3834 258.102 97.0672C257.077 97.6116 255.956 97.9537 254.8 98.0745L254.178 98.1907C248.681 99.2562 243.436 102.724 238.133 108.806C231.995 115.877 228.654 123.005 228.188 129.979C227.624 138.347 231.82 146.29 238.425 149.35C238.559 149.412 238.678 149.504 238.772 149.618C238.866 149.732 238.933 149.865 238.969 150.009C239 150.155 238.997 150.306 238.96 150.45C238.923 150.595 238.852 150.729 238.755 150.842C237.153 152.729 236.147 155.048 235.863 157.504C235.58 159.961 236.031 162.446 237.161 164.648C238.291 166.849 240.048 168.668 242.212 169.875C244.376 171.083 246.85 171.625 249.322 171.433C249.543 171.411 249.766 171.466 249.95 171.59C250.135 171.714 250.27 171.898 250.332 172.111C250.398 172.319 250.392 172.543 250.314 172.747C250.237 172.951 250.093 173.123 249.905 173.235C249.785 173.301 249.683 173.396 249.609 173.511C249.534 173.626 249.489 173.757 249.478 173.894C249.511 175.13 250.026 176.305 250.915 177.167C259.501 186.504 270.34 191.967 279.839 191.773L282.034 191.793Z" fill="#231F20"/>
<path d="M388.114 456.133C392.562 456.133 425.721 459.716 441.241 467.407C456.762 475.097 460.122 475.697 456.975 486.08C453.829 496.463 426.498 499.02 405.693 495.108C392.294 492.36 379.369 487.675 367.329 481.199L388.114 456.133Z" fill="white"/>
<path d="M425.313 497.878C418.675 497.852 412.054 497.203 405.538 495.94C392.047 493.172 379.032 488.461 366.902 481.954C366.789 481.887 366.691 481.797 366.614 481.69C366.538 481.584 366.483 481.463 366.455 481.335C366.432 481.208 366.438 481.078 366.472 480.955C366.505 480.831 366.566 480.716 366.649 480.618L387.434 455.551C387.51 455.449 387.61 455.365 387.725 455.308C387.839 455.251 387.966 455.221 388.094 455.222H388.289C393.708 455.222 426.09 458.903 441.63 466.593L445.126 468.317C457.578 474.4 460.938 476.066 457.83 486.332C455.868 492.841 443.087 497.878 425.313 497.878ZM368.708 480.928C380.405 487.086 392.915 491.566 405.868 494.236C426.75 498.11 453.246 495.359 456.14 485.829C458.801 476.995 456.878 476.046 444.349 469.925L440.853 468.201C426.031 460.859 394.33 457.12 388.522 457.004L368.708 480.928Z" fill="#231F20"/>
<path d="M392.562 456.036C395.495 456.752 398.048 458.548 399.709 461.063C401.37 463.578 402.016 466.626 401.517 469.596C400.06 480.618 376.692 481.083 375.352 481.218C374.011 481.354 392.562 456.036 392.562 456.036Z" fill="white"/>
<path d="M375.352 481.838C375.178 481.833 375.009 481.784 374.859 481.696C374.71 481.608 374.585 481.484 374.497 481.335C374.205 480.753 373.739 479.862 391.843 455.435C391.947 455.293 392.092 455.185 392.258 455.126C392.425 455.068 392.605 455.06 392.776 455.106C392.873 455.106 403.945 457.876 402.488 469.557C401.012 480.773 379.722 481.761 375.468 481.838H375.352ZM392.834 456.985C387.143 464.733 378.673 476.356 376.556 480.037C381.878 479.785 399.38 478.293 400.565 469.324C401.022 466.7 400.494 464 399.082 461.738C397.671 459.477 395.475 457.813 392.912 457.062L392.834 456.985Z" fill="#231F20"/>
<path d="M219.369 481.276C218.689 481.625 212.337 489.858 184.637 493.151C156.937 496.444 146.661 502.391 140.484 487.882C134.307 473.373 138.541 463.997 152.139 459.852C165.736 455.706 203.401 452.278 210.783 459.213C218.164 466.147 219.369 481.276 219.369 481.276Z" fill="white"/>
<path d="M154.159 498.071C147.302 498.071 142.893 495.785 139.668 488.231C136.443 480.676 135.958 474.187 138.308 469.169C140.484 464.52 145.068 461.092 151.906 459.019C164.687 455.145 203.518 451.154 211.405 458.573C218.961 465.663 220.165 480.579 220.224 481.199C220.232 481.363 220.198 481.527 220.123 481.673C220.048 481.819 219.935 481.943 219.796 482.032L219.524 482.264C211.541 489.509 196.214 492.667 184.715 494.023C178.751 494.739 173.623 495.572 169.175 496.308C164.22 497.265 159.201 497.854 154.159 498.071ZM190.018 456.113C176.712 456.113 160.589 458.225 152.469 460.704C146.098 462.641 141.863 465.741 139.921 469.925C137.784 474.458 138.25 480.385 141.3 487.533C145.865 498.284 152.605 497.219 168.844 494.565C173.39 493.829 178.557 492.996 184.54 492.279C195.767 490.943 210.744 487.882 218.378 480.947C218.106 478.409 216.436 465.876 210.161 459.91C207.364 457.159 199.38 456.113 190.018 456.113Z" fill="#231F20"/>
<path d="M228.207 475.349C228.207 475.349 215.639 485.809 207.267 484.57C198.895 483.33 187.318 478.758 191.98 469.75C196.642 460.743 226.653 455.319 226.653 455.319L228.207 475.349Z" fill="white"/>
<path d="M208.705 485.557C208.178 485.558 207.652 485.519 207.131 485.441C200.857 484.511 193.281 481.838 190.853 477.092C190.253 475.876 189.97 474.53 190.027 473.176C190.085 471.822 190.482 470.505 191.183 469.344C196.001 460.007 225.255 454.68 226.498 454.447C226.62 454.426 226.745 454.431 226.866 454.461C226.986 454.491 227.099 454.546 227.197 454.622C227.296 454.699 227.377 454.796 227.437 454.906C227.497 455.016 227.535 455.136 227.547 455.261L229.101 475.271C229.112 475.413 229.089 475.555 229.035 475.686C228.981 475.817 228.897 475.934 228.79 476.027C228.285 476.434 217.232 485.557 208.705 485.557ZM225.857 456.384C220.709 457.392 196.719 462.486 192.834 470.157C192.261 471.068 191.929 472.109 191.867 473.183C191.806 474.257 192.019 475.328 192.485 476.298C194.621 480.424 201.614 482.826 207.461 483.698C214.59 484.763 225.293 476.589 227.353 474.961L225.857 456.384Z" fill="#231F20"/>
<path d="M379.178 387.481C379.178 387.481 365.93 439.008 317.582 448.849C269.233 458.69 244.213 456.094 227.081 423.55C209.948 391.006 221.253 371.093 221.253 371.093L373.836 368.071L379.178 387.481Z" fill="#231F20"/>
<path d="M277.702 454.873C254.392 454.873 238.211 446.776 226.206 423.996C209.035 391.355 219.971 371.441 220.379 370.609C220.464 370.462 220.585 370.34 220.732 370.255C220.878 370.17 221.045 370.125 221.214 370.124L373.798 367.102C374.018 367.091 374.235 367.157 374.412 367.287C374.589 367.418 374.715 367.606 374.769 367.819L380.052 387.19C380.091 387.356 380.091 387.528 380.052 387.694C379.916 388.217 366.105 439.996 317.698 449.779C302.411 452.936 289.182 454.873 277.702 454.873ZM221.894 372.042C220.379 375.238 212.725 394.183 227.935 423.105C245.321 456.036 270.67 457.43 317.29 447.9C362.803 438.64 377.003 391.278 378.071 387.481L373.04 369.059L221.894 372.042Z" fill="#231F20"/>
<path d="M209.87 387.946C209.87 387.946 184.87 307.361 188.153 256.861C191.436 206.36 210.259 204.558 235.938 201.711C247.341 200.432 308.083 191.463 330.83 218.157C353.576 244.85 393.611 369.872 393.611 369.872L209.87 387.946Z" fill="#FFB224"/>
<path d="M300.099 201.846L296.214 228.811C296.214 228.811 287.706 242.739 270.67 235.688C253.635 228.637 253.304 215.639 253.304 215.639L261.385 165.816C261.385 165.816 279.353 149.738 286.91 119.015C286.91 119.015 301.964 145.205 323.817 151.094C323.817 151.094 322.36 172.848 318.456 186.33C314.571 199.367 300.371 201.691 300.099 201.846Z" fill="white"/>
<path d="M279.8 238.632C276.496 238.592 273.234 237.894 270.204 236.579C252.722 229.373 252.255 216.22 252.236 215.658L260.375 165.661C260.414 165.439 260.523 165.236 260.686 165.08C260.861 164.925 278.518 148.847 285.938 118.782C285.992 118.598 286.097 118.432 286.241 118.305C286.386 118.178 286.564 118.095 286.754 118.066C286.944 118.039 287.138 118.069 287.31 118.151C287.483 118.234 287.628 118.366 287.725 118.531C287.881 118.802 302.857 144.449 324.011 150.144C324.23 150.202 324.422 150.335 324.553 150.519C324.684 150.703 324.747 150.927 324.73 151.152C324.73 151.365 323.215 173.177 319.33 186.601C316.125 197.662 305.732 201.459 300.993 202.621L297.108 228.947C297.09 229.075 297.05 229.199 296.991 229.315C295.077 232.121 292.518 234.43 289.528 236.051C286.538 237.672 283.203 238.557 279.8 238.632ZM262.318 166.281L254.276 215.794C254.276 216.103 254.858 228.075 271.059 234.797C286.191 241.054 294.369 229.915 295.301 228.462L299.186 201.711C299.204 201.564 299.258 201.424 299.342 201.302C299.427 201.181 299.54 201.081 299.672 201.013C299.851 200.91 300.049 200.844 300.255 200.82C304.431 199.832 314.493 196.403 317.485 186.059C320.903 174.262 322.457 155.82 322.749 151.81C304.489 146.464 291.241 127.693 287.279 121.475C279.897 148.75 264.415 164.15 262.318 166.281Z" fill="#231F20"/>
<path d="M271.855 166.571C271.637 164.051 270.6 161.671 268.903 159.791C267.252 158.103 265.319 156.713 263.192 155.685C262.088 155.004 260.848 154.574 259.559 154.425C258.647 154.434 257.745 154.612 256.898 154.948C254.83 155.606 253.066 156.981 251.925 158.823C251.174 160.385 250.821 162.109 250.896 163.84C250.819 165.713 250.989 167.589 251.401 169.419C251.857 171.246 252.674 172.963 253.805 174.471C254.936 175.979 256.357 177.246 257.985 178.199C259.614 179.151 261.416 179.77 263.288 180.019C265.159 180.267 267.061 180.141 268.883 179.647" fill="white"/>
<path d="M265.192 181.022C261.812 181.025 258.528 179.902 255.86 177.832C253.193 175.761 251.295 172.862 250.468 169.593C250.018 167.691 249.835 165.735 249.924 163.782C249.856 161.895 250.249 160.02 251.07 158.319C252.308 156.294 254.23 154.776 256.49 154.038C257.457 153.663 258.483 153.467 259.52 153.457C260.959 153.608 262.346 154.078 263.58 154.832C265.801 155.913 267.818 157.368 269.544 159.133C271.386 161.174 272.511 163.758 272.749 166.494C272.765 166.75 272.681 167.002 272.514 167.197C272.347 167.392 272.111 167.515 271.855 167.54C271.6 167.551 271.349 167.466 271.155 167.3C270.96 167.135 270.835 166.902 270.806 166.649C270.615 164.344 269.682 162.162 268.145 160.431C266.566 158.832 264.719 157.52 262.687 156.556C261.718 155.937 260.623 155.54 259.481 155.394C258.694 155.401 257.916 155.558 257.189 155.859C255.355 156.424 253.775 157.609 252.722 159.21C252.062 160.641 251.755 162.209 251.828 163.782C251.735 165.571 251.898 167.365 252.314 169.109C252.741 170.805 253.502 172.399 254.553 173.798C255.603 175.198 256.923 176.376 258.434 177.263C259.945 178.149 261.617 178.728 263.355 178.964C265.092 179.201 266.859 179.09 268.553 178.64C268.8 178.574 269.063 178.609 269.285 178.736C269.507 178.863 269.67 179.072 269.738 179.318C269.77 179.441 269.777 179.569 269.76 179.696C269.742 179.822 269.699 179.943 269.634 180.053C269.569 180.163 269.483 180.259 269.381 180.335C269.279 180.412 269.162 180.468 269.039 180.499C267.786 180.844 266.492 181.02 265.192 181.022Z" fill="#231F20"/>
<path d="M296.272 158.881C296.272 158.881 303.906 173.894 301.401 176.044C298.895 178.194 292.873 175.831 292.873 175.831" fill="white"/>
<path d="M298.273 177.923C296.278 177.861 294.307 177.462 292.446 176.741C292.327 176.694 292.219 176.624 292.127 176.536C292.036 176.447 291.962 176.341 291.912 176.224C291.861 176.107 291.834 175.981 291.833 175.854C291.831 175.727 291.854 175.6 291.902 175.482C292.001 175.246 292.188 175.058 292.423 174.957C292.659 174.856 292.924 174.85 293.164 174.94C294.582 175.482 298.992 176.741 300.682 175.308C301.711 174.455 299.147 166.823 295.34 159.307C295.28 159.194 295.244 159.071 295.233 158.944C295.222 158.817 295.237 158.689 295.277 158.568C295.317 158.446 295.381 158.335 295.465 158.239C295.55 158.143 295.652 158.065 295.767 158.009C295.998 157.899 296.261 157.882 296.504 157.962C296.746 158.041 296.949 158.211 297.069 158.435C299.458 163.162 304.742 174.397 301.964 176.78C300.9 177.568 299.598 177.972 298.273 177.923Z" fill="#231F20"/>
<path d="M286.789 155.488C286.936 153.696 286.014 152.159 284.731 152.055C283.448 151.951 282.289 153.318 282.143 155.11C281.996 156.901 282.918 158.438 284.201 158.542C285.484 158.647 286.643 157.279 286.789 155.488Z" fill="#231F20"/>
<path d="M310.855 158.803C310.989 157.011 310.057 155.481 308.773 155.385C307.489 155.29 306.34 156.666 306.206 158.458C306.072 160.251 307.004 161.781 308.288 161.876C309.572 161.972 310.721 160.596 310.855 158.803Z" fill="#231F20"/>
<path d="M294.291 189.933C291.321 189.985 288.382 189.32 285.725 187.996C281.082 185.574 278.11 180.945 276.886 174.242C276.864 174.116 276.867 173.987 276.895 173.862C276.923 173.737 276.976 173.619 277.05 173.515C277.124 173.41 277.218 173.322 277.326 173.254C277.435 173.186 277.556 173.14 277.683 173.119C277.934 173.079 278.192 173.137 278.402 173.281C278.612 173.425 278.758 173.645 278.809 173.894C279.897 179.976 282.539 184.141 286.579 186.272C294.738 190.533 306.218 185.381 306.335 185.323C306.569 185.218 306.836 185.21 307.076 185.301C307.316 185.391 307.511 185.573 307.617 185.807C307.671 185.922 307.702 186.047 307.707 186.175C307.712 186.302 307.692 186.43 307.646 186.549C307.601 186.668 307.532 186.777 307.443 186.87C307.355 186.962 307.249 187.035 307.131 187.085C303.074 188.848 298.715 189.815 294.291 189.933Z" fill="#231F20"/>
<path d="M300.099 201.846C300.099 201.846 282.617 203.28 273.603 196.19C273.603 196.19 281.276 220.404 297.399 220.326L300.099 201.846Z" fill="#231F20"/>
<path d="M297.282 221.295C280.694 221.295 272.962 197.488 272.632 196.48C272.575 196.282 272.582 196.07 272.651 195.876C272.721 195.681 272.85 195.513 273.021 195.396C273.184 195.268 273.386 195.199 273.594 195.199C273.801 195.199 274.003 195.268 274.167 195.396C282.85 202.156 299.808 200.858 299.983 200.839C300.127 200.829 300.272 200.851 300.407 200.904C300.542 200.957 300.663 201.04 300.762 201.146C300.861 201.251 300.934 201.378 300.978 201.516C301.021 201.654 301.033 201.8 301.012 201.943L298.312 220.443C298.27 220.684 298.144 220.902 297.955 221.058C297.766 221.215 297.528 221.299 297.282 221.295ZM275.526 198.631C277.993 204.694 284.986 218.738 296.525 219.338L298.914 202.892C295.185 203.047 283.685 203.163 275.565 198.631H275.526Z" fill="#231F20"/>
<path d="M216.688 206.205C180.81 201.749 147.127 353.639 166.708 368.071C197.244 390.6 290.445 359.838 290.445 359.838L281.121 319.759C281.121 319.759 213.852 322.955 212.628 309.182C211.405 295.409 250.216 230.845 244.777 221.431C239.338 212.016 216.688 206.205 216.688 206.205Z" fill="#FFB224"/>
<path d="M341.96 320.883C341.746 320.889 341.537 320.815 341.375 320.675C341.213 320.535 341.11 320.339 341.086 320.127C336.463 287.738 326.323 233.499 323.04 230.322C322.88 230.155 322.791 229.934 322.792 229.703C322.793 229.472 322.883 229.251 323.044 229.086C323.205 228.92 323.424 228.823 323.655 228.816C323.886 228.808 324.111 228.889 324.283 229.043C328.498 233.131 339.338 295.351 342.834 319.875C342.867 320.109 342.806 320.346 342.664 320.535C342.522 320.724 342.311 320.849 342.077 320.883H341.96Z" fill="#231F20"/>
<path d="M307.636 397.515L245.709 380.217L359.442 358.889L421 384.614L307.636 397.515Z" fill="white"/>
<path d="M307.636 398.542C307.553 398.56 307.467 398.56 307.383 398.542L245.457 381.108C245.199 381.108 244.952 381.006 244.77 380.824C244.588 380.642 244.485 380.396 244.485 380.139C244.485 379.882 244.588 379.636 244.77 379.454C244.952 379.273 245.199 379.171 245.457 379.171L359.19 357.862C359.367 357.805 359.557 357.805 359.734 357.862L421.292 383.587C421.489 383.67 421.653 383.816 421.758 384.002C421.863 384.187 421.904 384.403 421.874 384.614C421.845 384.828 421.746 385.026 421.591 385.177C421.436 385.328 421.235 385.423 421.02 385.447L307.753 398.542H307.636ZM249.983 380.468L307.714 396.605L417.193 384.149L359.326 359.974L249.983 380.468Z" fill="#231F20"/>
<path d="M271.098 333.609C284.695 335.101 297.302 336.07 309.948 341.358C317.174 344.385 323.998 348.288 330.266 352.981C333.46 355.241 336.444 357.782 339.182 360.574C341.358 362.937 340.658 365.243 337.007 364.1C332.76 362.773 328.739 360.814 325.08 358.288C333.829 365.407 341.584 373.661 348.137 382.832C348.875 383.878 349.594 385.369 348.72 386.299C347.846 387.229 345.903 386.299 344.835 385.331L325.624 367.16C330.709 371.536 335.035 376.72 338.425 382.502C338.91 383.335 339.376 384.44 338.871 385.195C338.017 386.609 335.841 385.544 334.676 384.362C328.921 378.568 323.689 372.28 319.038 365.572L329.411 381.069C329.313 381.355 329.159 381.618 328.958 381.844C328.757 382.071 328.513 382.255 328.241 382.386C327.968 382.518 327.672 382.594 327.369 382.611C327.067 382.627 326.764 382.584 326.478 382.483C325.336 382.013 324.347 381.235 323.623 380.236L311.055 365.843L318.475 376.032C319.641 377.621 320.806 379.907 319.466 381.398C318.125 382.89 315.095 381.398 313.386 379.887C306.51 373.63 298.959 368.154 290.872 363.557C287.939 361.833 285.433 359.489 282.189 358.501C277.527 357.068 271.7 357.262 266.844 356.719" fill="white"/>
<path d="M347.788 387.616C346.49 387.47 345.282 386.882 344.369 385.951L338.153 380.139C338.561 380.778 338.969 381.437 339.338 382.076C339.731 382.581 339.98 383.182 340.059 383.816C340.137 384.451 340.043 385.094 339.784 385.679C339.61 385.978 339.369 386.231 339.078 386.42C338.788 386.608 338.458 386.726 338.114 386.764C337.379 386.755 336.654 386.593 335.986 386.29C335.317 385.986 334.719 385.548 334.229 385.001C332.947 383.723 331.704 382.425 330.48 381.127C330.489 381.198 330.489 381.269 330.48 381.34C330.406 381.699 330.257 382.038 330.043 382.335C329.829 382.632 329.554 382.88 329.237 383.064C328.817 383.314 328.351 383.476 327.867 383.539C327.382 383.603 326.89 383.566 326.42 383.432C325.113 382.921 323.981 382.047 323.157 380.914L320.864 378.299C321.15 378.93 321.251 379.629 321.155 380.315C321.059 381 320.769 381.645 320.321 382.173C320.041 382.485 319.7 382.737 319.319 382.914C318.939 383.091 318.526 383.188 318.106 383.2C316.078 382.979 314.199 382.029 312.823 380.527C306.014 374.303 298.52 368.87 290.484 364.332C289.493 363.751 288.541 363.092 287.609 362.395C285.912 361.075 284.017 360.029 281.995 359.296C278.608 358.441 275.135 357.973 271.642 357.901C269.971 357.804 268.339 357.707 266.805 357.552C266.571 357.523 266.358 357.403 266.212 357.218C266.067 357.033 266 356.798 266.028 356.564C266.04 356.45 266.075 356.338 266.13 356.237C266.186 356.136 266.261 356.047 266.351 355.975C266.441 355.903 266.545 355.849 266.656 355.817C266.768 355.785 266.884 355.776 266.999 355.789C268.514 355.944 270.107 356.041 271.739 356.138C275.376 356.208 278.994 356.695 282.519 357.591C284.709 358.389 286.765 359.513 288.619 360.923C289.512 361.562 290.425 362.182 291.377 362.744C299.524 367.36 307.127 372.87 314.046 379.171C315.097 380.236 316.455 380.947 317.931 381.205C318.112 381.198 318.289 381.155 318.453 381.079C318.616 381.002 318.763 380.893 318.883 380.759C319.932 379.616 318.495 377.388 317.834 376.478L310.414 366.308C310.344 366.219 310.293 366.118 310.264 366.009C310.234 365.9 310.226 365.787 310.24 365.675C310.255 365.564 310.291 365.456 310.348 365.358C310.404 365.261 310.479 365.175 310.569 365.107C310.733 364.947 310.952 364.858 311.181 364.858C311.41 364.858 311.63 364.947 311.793 365.107L324.38 379.5C324.995 380.357 325.835 381.028 326.809 381.437C327.038 381.501 327.279 381.519 327.516 381.489C327.753 381.459 327.981 381.382 328.188 381.263C328.312 381.198 328.418 381.105 328.499 380.991L318.378 365.824C318.247 365.631 318.197 365.394 318.241 365.165C318.285 364.937 318.418 364.734 318.611 364.603C318.804 364.472 319.042 364.423 319.271 364.467C319.501 364.51 319.704 364.643 319.835 364.836C324.464 371.497 329.664 377.745 335.375 383.51C336.007 384.202 336.87 384.643 337.803 384.75C337.88 384.747 337.955 384.725 338.02 384.684C338.085 384.643 338.137 384.585 338.172 384.517C338.386 384.188 338.172 383.568 337.725 382.716C335.387 378.725 332.59 375.019 329.392 371.674L325.06 367.567C324.92 367.401 324.846 367.19 324.851 366.973C324.856 366.755 324.94 366.548 325.088 366.388C325.236 366.229 325.437 366.129 325.654 366.107C325.87 366.085 326.088 366.143 326.265 366.269C327.799 367.587 329.256 368.962 330.655 370.415L345.495 384.459C346.072 385.113 346.865 385.539 347.729 385.66C347.808 385.663 347.886 385.647 347.957 385.613C348.028 385.58 348.09 385.529 348.137 385.466C348.584 385.001 348.137 383.955 347.496 383.103C340.991 374 333.295 365.804 324.613 358.734C324.454 358.583 324.357 358.379 324.339 358.162C324.32 357.944 324.383 357.727 324.515 357.552C324.647 357.377 324.839 357.257 325.054 357.214C325.269 357.171 325.493 357.209 325.682 357.32C329.253 359.799 333.184 361.719 337.337 363.015C338.697 363.441 339.415 363.267 339.551 363.015C339.687 362.763 339.551 361.911 338.599 360.904C335.904 358.146 332.958 355.642 329.8 353.426C323.593 348.783 316.834 344.924 309.676 341.939C298.273 337.193 286.871 335.973 274.711 334.675L270.923 334.249C270.808 334.237 270.696 334.202 270.595 334.147C270.493 334.091 270.404 334.016 270.331 333.926C270.259 333.836 270.205 333.733 270.174 333.622C270.142 333.511 270.132 333.395 270.146 333.28C270.158 333.165 270.193 333.054 270.248 332.953C270.304 332.852 270.379 332.762 270.469 332.69C270.559 332.618 270.663 332.565 270.774 332.533C270.886 332.501 271.002 332.492 271.117 332.505L275.002 332.912C287.22 334.229 298.739 335.469 310.375 340.312C317.668 343.325 324.559 347.229 330.888 351.935C334.135 354.238 337.165 356.832 339.94 359.683C341.338 361.194 341.766 362.841 341.066 363.945C340.659 364.565 339.571 365.494 336.832 364.642C335.251 364.16 333.701 363.585 332.189 362.918C338.4 368.713 344.016 375.112 348.953 382.018C350.293 383.955 350.468 385.524 349.477 386.609C349.265 386.842 349.008 387.029 348.721 387.159C348.433 387.289 348.122 387.359 347.807 387.365L347.788 387.616Z" fill="#231F20"/>
<path d="M421 384.614L449.341 308.969L333.588 311.255L307.636 397.515L421 384.614Z" fill="white"/>
<path d="M307.636 398.542C307.494 398.543 307.354 398.513 307.227 398.452C307.099 398.392 306.986 398.303 306.898 398.193C306.796 398.071 306.725 397.926 306.691 397.771C306.658 397.616 306.662 397.455 306.704 397.302L332.655 311.042C332.718 310.847 332.839 310.676 333.003 310.551C333.166 310.426 333.363 310.354 333.568 310.345L449.322 308.059C449.481 308.056 449.638 308.092 449.78 308.163C449.922 308.234 450.044 308.338 450.138 308.466C450.222 308.596 450.277 308.744 450.297 308.898C450.317 309.052 450.303 309.209 450.254 309.357L421.913 384.904C421.85 385.076 421.74 385.226 421.596 385.339C421.452 385.452 421.279 385.523 421.097 385.544L307.753 398.542H307.636ZM334.326 312.262L309.073 396.45L420.379 383.781L448.001 310.015L334.326 312.262Z" fill="#231F20"/>
<path d="M414.823 385.311C414.823 385.311 446.233 410.746 435.2 434.069C424.167 457.392 223.468 484.047 223.468 484.047L214.435 453.556C214.435 453.556 371.874 373.359 414.823 385.311Z" fill="#231F20"/>
<path d="M223.468 485.015C223.258 485.012 223.055 484.943 222.888 484.818C222.72 484.692 222.597 484.517 222.535 484.318L213.503 453.827C213.433 453.613 213.445 453.381 213.534 453.175C213.623 452.968 213.785 452.801 213.988 452.704C214.377 452.491 253.868 432.442 298.118 414.078C357.655 389.379 396.991 379.384 415.017 384.381C415.153 384.419 415.279 384.485 415.387 384.575C420.868 389.219 425.737 394.537 429.878 400.401C438.541 412.838 440.639 424.616 435.938 434.495C424.711 458.012 231.801 483.911 223.604 484.996L223.468 485.015ZM215.581 454.021L224.167 482.923C238.192 480.986 423.759 455.455 434.19 433.623C444.446 412.082 416.707 388.12 414.299 386.164C373.467 375.296 227.353 448.21 215.698 454.06L215.581 454.021Z" fill="#231F20"/>
<path d="M204.043 373.63C204.043 373.63 359.889 436.471 398.526 453.052L376.07 487.65C376.07 487.65 232.17 484.841 190.911 448.791C149.653 412.741 152.391 352.729 204.043 373.63Z" fill="#231F20"/>
<path d="M376.07 488.657C375.721 488.657 339.571 487.901 298.856 482.749C244.077 475.794 207.558 464.636 190.29 449.546C168.689 430.679 153.557 397.554 165.445 378.318C169.33 371.926 179.703 362.724 204.45 372.72C206.004 373.359 360.744 435.773 398.953 452.142C399.083 452.195 399.2 452.276 399.294 452.38C399.388 452.484 399.457 452.608 399.497 452.743C399.536 452.879 399.546 453.022 399.526 453.162C399.505 453.302 399.456 453.436 399.38 453.556L376.925 488.211C376.834 488.353 376.707 488.469 376.557 488.547C376.407 488.625 376.239 488.663 376.07 488.657ZM184.909 370.26C176.925 370.26 170.806 373.32 167.077 379.326C157.908 394.183 165.542 425.371 191.552 448.093C230.81 482.4 365.853 486.468 375.546 486.7L397.108 453.479C357.209 436.432 205.247 375.141 203.693 374.521C197.76 371.923 191.385 370.477 184.909 370.26Z" fill="#231F20"/>
<path d="M421.603 354.414C421.77 355.308 422.157 356.147 422.729 356.855L425.759 361.368C425.649 360.902 425.437 360.466 425.138 360.09C424.84 359.714 424.463 359.408 424.033 359.194C423.603 358.98 423.131 358.862 422.651 358.85C422.171 358.837 421.693 358.93 421.253 359.121C420.392 359.586 419.677 360.278 419.187 361.123C418.697 361.967 418.45 362.931 418.475 363.906C418.562 365.855 419.024 367.768 419.835 369.543C421.991 375.122 426.867 383.277 433.918 379.054C438.697 376.187 440.017 366.076 440.697 361.039C442.038 351.121 438.988 338.375 426.206 340.312C426.575 345.196 428.402 349.858 431.451 353.697C429.373 351.683 420.961 348.564 421.603 354.414Z" fill="white"/>
<path d="M430.014 381.108C429.233 381.113 428.457 380.982 427.721 380.72C423.118 379.151 420.243 373.243 418.941 369.853C418.094 367.972 417.613 365.947 417.523 363.887C417.492 362.741 417.787 361.611 418.375 360.626C418.963 359.642 419.82 358.845 420.845 358.327C421.321 358.111 421.837 357.999 422.36 357.998L421.933 357.359C421.269 356.526 420.828 355.54 420.651 354.492C420.496 353.722 420.603 352.924 420.955 352.222C421.307 351.52 421.883 350.956 422.593 350.617C424.585 350.004 426.736 350.163 428.615 351.063C426.749 347.811 425.634 344.184 425.352 340.448C425.339 340.224 425.409 340.004 425.549 339.829C425.688 339.654 425.888 339.536 426.109 339.498C428.053 339.074 430.071 339.128 431.99 339.654C433.909 340.18 435.67 341.164 437.123 342.52C441.688 347.014 442.446 355.112 441.61 361.213C440.853 366.792 439.493 376.807 434.404 379.868C433.087 380.686 431.565 381.116 430.014 381.108ZM422.477 359.799C422.164 359.795 421.853 359.855 421.564 359.974C420.857 360.368 420.272 360.949 419.875 361.653C419.477 362.357 419.282 363.157 419.31 363.964C419.387 365.8 419.822 367.603 420.592 369.272C421.564 371.751 424.244 377.698 428.362 379.093C429.212 379.364 430.113 379.437 430.995 379.306C431.878 379.175 432.718 378.844 433.452 378.338C437.822 375.723 439.143 365.882 439.784 361.155C440.581 355.344 439.94 347.789 435.899 343.721C434.753 342.645 433.373 341.846 431.868 341.386C430.362 340.926 428.771 340.817 427.216 341.067C427.716 345.476 429.446 349.657 432.209 353.136C432.351 353.31 432.42 353.532 432.402 353.756C432.383 353.979 432.28 354.187 432.111 354.337C431.946 354.492 431.727 354.578 431.5 354.578C431.272 354.578 431.053 354.492 430.888 354.337C429.586 353.058 425.293 351.237 423.37 352.167C422.943 352.361 422.399 352.806 422.535 354.317C422.705 355.064 423.036 355.765 423.506 356.371L425.138 358.773C425.566 359.049 425.927 359.417 426.195 359.849C426.464 360.281 426.634 360.767 426.692 361.272C426.713 361.469 426.666 361.668 426.561 361.836C426.455 362.005 426.296 362.133 426.109 362.201C425.923 362.268 425.72 362.269 425.533 362.206C425.346 362.143 425.186 362.018 425.08 361.853L423.875 360.071C423.441 359.86 422.959 359.767 422.477 359.799Z" fill="#231F20"/>
<path d="M377.838 445.885C377.716 445.904 377.591 445.904 377.469 445.885C374.07 444.568 293.728 413.555 275.624 402.494C275.398 402.354 275.238 402.131 275.176 401.873C275.114 401.616 275.156 401.345 275.293 401.118C275.361 401.005 275.451 400.907 275.557 400.828C275.664 400.75 275.785 400.694 275.913 400.664C276.042 400.633 276.175 400.628 276.306 400.65C276.436 400.671 276.561 400.719 276.673 400.789C294.621 411.753 377.352 443.696 378.188 444.006C378.437 444.102 378.639 444.292 378.748 444.535C378.857 444.778 378.865 445.055 378.77 445.304C378.69 445.482 378.558 445.632 378.392 445.735C378.227 445.839 378.034 445.891 377.838 445.885Z" fill="white"/>
<path d="M284.132 319.391C301.844 319.391 316.202 305.835 316.202 289.114C316.202 272.392 301.844 258.836 284.132 258.836C266.42 258.836 252.061 272.392 252.061 289.114C252.061 305.835 266.42 319.391 284.132 319.391Z" fill="#231F20"/>
<path d="M284.132 320.34C265.911 320.34 251.109 306.335 251.109 289.114C251.109 271.893 265.931 257.868 284.132 257.868C302.333 257.868 317.154 271.893 317.154 289.114C317.154 306.335 302.352 320.34 284.132 320.34ZM284.132 259.805C266.979 259.805 253.052 272.958 253.052 289.114C253.052 305.269 266.999 318.403 284.132 318.403C301.265 318.403 315.212 305.269 315.212 289.114C315.212 272.958 301.284 259.805 284.132 259.805Z" fill="#231F20"/>
<path d="M267.213 298.954L259.443 294.421V288.436L267.213 283.903C269.803 282.418 272.393 280.907 274.983 279.37V286.615C273.603 287.467 272.224 288.3 270.845 289.094C269.466 289.889 268.106 290.702 266.708 291.574L270.845 293.86L274.983 296.165V303.487L267.213 298.954Z" fill="white"/>
<path d="M277.178 305.405L286.327 270.692L291.105 272.842L281.917 307.497L277.178 305.405Z" fill="white"/>
<path d="M301.168 283.903L308.938 288.436V294.421L301.168 298.954L293.398 303.487V296.165L297.535 293.86L301.673 291.574C300.293 290.702 298.914 289.869 297.535 289.094C296.156 288.319 294.796 287.467 293.398 286.615V279.37L301.168 283.903Z" fill="white"/>
<path d="M217.64 373.359C217.382 373.375 217.129 373.287 216.936 373.117C216.743 372.946 216.626 372.706 216.61 372.449C216.595 372.192 216.683 371.939 216.854 371.747C217.025 371.554 217.266 371.438 217.523 371.422L264.143 365.785L271.544 328.573L211.812 323.536C211.67 323.527 211.531 323.485 211.407 323.415C211.282 323.344 211.175 323.247 211.094 323.13C211.007 323.015 210.947 322.882 210.92 322.741C210.893 322.6 210.899 322.454 210.938 322.316L235.492 231.155C235.559 230.898 235.725 230.678 235.955 230.544C236.184 230.409 236.458 230.371 236.715 230.438C236.973 230.505 237.193 230.671 237.328 230.9C237.463 231.129 237.501 231.402 237.434 231.659L213.172 321.715L272.749 326.636C272.885 326.651 273.018 326.692 273.138 326.759C273.258 326.826 273.363 326.915 273.448 327.023C273.529 327.133 273.587 327.259 273.617 327.392C273.647 327.526 273.649 327.664 273.623 327.798L265.853 366.754C265.811 366.953 265.708 367.134 265.558 367.273C265.409 367.412 265.22 367.501 265.018 367.529L217.64 373.243V373.359Z" fill="#231F20"/>
<path d="M474.361 110.298H377.508V120.293H474.361V110.298Z" fill="#E6E7E8"/>
<path d="M582.48 110.298H485.627V120.293H582.48V110.298Z" fill="#E6E7E8"/>
<path d="M474.361 127.422H417.504V137.417H474.361V127.422Z" fill="#FFB224"/>
<path d="M571.661 127.422H485.627V137.417H571.661V127.422Z" fill="#E6E7E8"/>
<path d="M474.361 144.565H402.702V154.561H474.361V144.565Z" fill="#E6E7E8"/>
<path d="M526.031 144.565H485.627V154.561H526.031V144.565Z" fill="#E6E7E8"/>
<path d="M474.38 161.69H432.578V171.685H474.38V161.69Z" fill="#E6E7E8"/>
<path d="M564.765 161.69H485.627V171.685H564.765V161.69Z" fill="#FFB224"/>
<path d="M474.361 178.833H461.055V188.829H474.361V178.833Z" fill="#FFB224"/>
<path d="M538.794 178.833H485.627V188.829H538.794V178.833Z" fill="#E6E7E8"/>
<path d="M472.69 249.267H383.685V260.715H472.69V249.267Z" fill="#FFB224"/>
<path d="M541.649 249.267H486.987V260.715H541.649V249.267Z" fill="#E6E7E8"/>
<path d="M472.671 268.871H400.41V280.319H472.671V268.871Z" fill="#E6E7E8"/>
<path d="M566.571 268.871H486.987V280.319H566.571V268.871Z" fill="#E6E7E8"/>
<path d="M472.671 288.494H436.54V299.942H472.671V288.494Z" fill="#E6E7E8"/>
<path d="M581.626 288.494H486.987V299.942H581.626V288.494Z" fill="#E6E7E8"/>
<path d="M472.671 308.117H459.132V319.565H472.671V308.117Z" fill="#E6E7E8"/>
<path d="M587.57 308.117H486.987V319.565H587.57V308.117Z" fill="#FFB224"/>
<path d="M554.547 327.721H486.987V339.169H554.547V327.721Z" fill="#E6E7E8"/>
<path d="M521.233 224.433L513.93 221.527V217.653L521.233 214.747L528.537 211.842V216.452C527.216 217.014 525.915 217.537 524.652 218.041C523.389 218.544 522.049 219.067 520.767 219.629L524.652 221.101L528.537 222.573V227.261L521.233 224.433Z" fill="#E6E7E8"/>
<path d="M530.693 228.559L539.357 206.34L543.902 207.696L535.18 230.012L530.693 228.559Z" fill="#E6E7E8"/>
<path d="M553.343 214.806C555.771 215.774 558.219 216.743 560.647 217.711V221.586L553.343 224.491L546.039 227.397V222.651L549.924 221.179L553.809 219.707C552.488 219.145 551.187 218.622 549.924 218.118C548.661 217.614 547.321 217.091 546.039 216.53V211.9L553.343 214.806Z" fill="#E6E7E8"/>
<path d="M380.052 86.4711C380.05 86.0221 380.149 85.5783 380.344 85.1732C380.514 84.7606 380.772 84.3903 381.101 84.0884C381.424 83.7903 381.8 83.5539 382.209 83.3911C382.646 83.212 383.115 83.1199 383.588 83.1199C384.035 83.124 384.478 83.2161 384.889 83.3911C385.29 83.5586 385.658 83.7946 385.977 84.0884C386.288 84.4017 386.538 84.7694 386.715 85.1732C386.895 85.5825 386.987 86.0244 386.987 86.4711C386.987 86.9241 386.895 87.3723 386.715 87.7883C386.533 88.1719 386.283 88.5196 385.977 88.815C385.327 89.42 384.477 89.7649 383.588 89.7836C383.115 89.7836 382.646 89.6915 382.209 89.5124C381.796 89.3569 381.419 89.1197 381.101 88.815C380.778 88.5308 380.52 88.1807 380.344 87.7883C380.149 87.3766 380.049 86.9264 380.052 86.4711ZM380.052 97.8226C380.062 97.3791 380.159 96.9418 380.339 96.5361C380.519 96.1304 380.778 95.7644 381.101 95.4594C381.418 95.1486 381.795 94.9048 382.209 94.7426C382.648 94.5702 383.116 94.4846 383.588 94.4908C384.034 94.4882 384.476 94.5738 384.889 94.7426C385.295 94.9097 385.664 95.1531 385.977 95.4594C386.288 95.7654 386.538 96.1268 386.715 96.5248C386.894 96.9376 386.987 97.3826 386.987 97.8323C386.987 98.2821 386.894 98.7271 386.715 99.1399C386.538 99.5321 386.287 99.8871 385.977 100.186C385.658 100.48 385.29 100.716 384.889 100.883C384.476 101.052 384.034 101.138 383.588 101.135C383.116 101.141 382.648 101.056 382.209 100.883C381.8 100.72 381.424 100.484 381.101 100.186C380.773 99.8983 380.515 99.5408 380.344 99.1399C380.147 98.7288 380.047 98.2782 380.052 97.8226Z" fill="#E6E7E8"/>
<path d="M493.475 412.412C494.243 412.451 495.002 412.233 495.631 411.792C496.175 411.385 496.428 410.533 496.428 409.215V403.21C496.426 402.216 496.557 401.226 496.816 400.266C497.058 399.371 497.466 398.53 498.02 397.786C498.586 397.071 499.302 396.489 500.118 396.082C501.09 395.63 502.154 395.411 503.226 395.442H507.597V401.68H506.062C505.712 401.645 505.359 401.707 505.041 401.857C504.723 402.007 504.451 402.24 504.256 402.532C503.92 403.122 503.752 403.792 503.77 404.469V410.591C503.792 411.366 503.653 412.138 503.362 412.857C503.129 413.413 502.8 413.924 502.391 414.368C502.034 414.751 501.605 415.06 501.128 415.279C500.748 415.479 500.333 415.604 499.905 415.647C500.327 415.725 500.738 415.855 501.128 416.034C501.603 416.238 502.033 416.534 502.391 416.906C503.326 417.938 503.821 419.293 503.77 420.683V426.824C503.746 427.502 503.914 428.174 504.256 428.761C504.449 429.057 504.719 429.294 505.037 429.448C505.356 429.601 505.71 429.665 506.062 429.633H507.597V435.87H503.226C502.154 435.902 501.09 435.683 500.118 435.231C499.302 434.823 498.586 434.241 498.02 433.526C497.47 432.78 497.062 431.94 496.816 431.047C496.558 430.08 496.427 429.084 496.428 428.083V422.078C496.495 421.619 496.458 421.152 496.321 420.709C496.183 420.267 495.947 419.861 495.631 419.521C495.002 419.08 494.243 418.861 493.475 418.901V412.412Z" fill="#E6E7E8"/>
<path d="M560.569 418.862C559.795 418.823 559.03 419.041 558.393 419.482C558.081 419.824 557.847 420.23 557.71 420.672C557.572 421.114 557.534 421.581 557.597 422.039V428.044C557.597 429.045 557.467 430.041 557.208 431.008C556.971 431.904 556.562 432.746 556.004 433.488C555.449 434.212 554.73 434.796 553.906 435.192C552.934 435.644 551.87 435.863 550.798 435.831H546.428V429.536H547.982C548.331 429.565 548.681 429.499 548.995 429.345C549.31 429.192 549.577 428.957 549.769 428.664C550.11 428.077 550.279 427.405 550.254 426.727V420.586C550.235 419.817 550.373 419.052 550.662 418.339C550.9 417.775 551.235 417.257 551.653 416.809C552.006 416.44 552.428 416.143 552.896 415.937C553.294 415.76 553.711 415.63 554.139 415.55C553.706 415.505 553.284 415.38 552.896 415.182C552.425 414.964 552.002 414.655 551.653 414.271C551.231 413.834 550.895 413.321 550.662 412.76C550.371 412.041 550.232 411.269 550.254 410.494V404.353C550.272 403.675 550.105 403.006 549.769 402.416C549.575 402.127 549.307 401.896 548.992 401.746C548.678 401.596 548.329 401.533 547.982 401.564H546.428V395.442H550.798C551.87 395.411 552.934 395.63 553.906 396.082C554.73 396.478 555.449 397.062 556.004 397.786C556.566 398.526 556.975 399.368 557.208 400.266C557.468 401.226 557.598 402.216 557.597 403.21V409.215C557.532 409.677 557.57 410.147 557.707 410.592C557.845 411.037 558.079 411.447 558.393 411.792C559.03 412.233 559.795 412.451 560.569 412.412V418.862Z" fill="#E6E7E8"/>
</svg>
