<svg width="662" height="499" viewBox="0 0 662 499" fill="none" xmlns="http://www.w3.org/2000/svg">
<path d="M376.877 416.905C372.714 416.952 368.566 416.394 364.563 415.25C354.005 412.072 344.554 403.217 338.663 390.985C333.383 380.027 331.265 367.961 329.229 356.226C329.208 356.121 329.208 356.013 329.23 355.909C329.253 355.804 329.296 355.705 329.358 355.618C329.42 355.531 329.5 355.458 329.592 355.403C329.683 355.348 329.785 355.313 329.891 355.299C329.994 355.28 330.1 355.282 330.203 355.304C330.306 355.326 330.403 355.368 330.489 355.428C330.575 355.488 330.649 355.565 330.705 355.654C330.762 355.742 330.8 355.841 330.818 355.945C332.837 367.531 334.922 379.481 340.103 390.24C345.812 402.074 354.898 410.599 365.027 413.661C372.392 415.862 380.418 415.316 387.998 414.422C404.234 412.502 414.131 407.47 418.285 399.062C418.434 398.731 418.583 398.433 418.682 398.152C416.084 398.88 413.518 399.807 411.003 400.75C408.917 401.512 406.766 402.29 404.614 402.968C394.143 406.255 383.036 406.981 372.226 405.087C367.013 404.16 363.835 401.644 363.719 398.367C363.604 395.09 366.434 392.474 371.481 391.018C385.312 386.998 399.963 386.729 413.932 390.24C417.904 391.233 420.089 392.888 420.552 395.288C420.601 395.551 420.635 395.816 420.651 396.083C421.28 395.934 421.909 395.801 422.555 395.685C429.274 394.494 436.291 395.172 443.077 395.818C452.709 396.745 461.811 397.622 470.02 393.583C470.213 393.492 470.435 393.481 470.636 393.552C470.838 393.624 471.003 393.772 471.096 393.964C471.144 394.058 471.172 394.161 471.18 394.267C471.187 394.372 471.174 394.478 471.14 394.579C471.106 394.679 471.052 394.771 470.982 394.85C470.912 394.93 470.827 394.994 470.732 395.04C462.109 399.261 452.361 398.35 442.928 397.423C436.308 396.778 429.34 396.116 422.836 397.274C422.042 397.407 421.181 397.589 420.469 397.771C420.275 398.504 420.003 399.214 419.658 399.89C415.256 408.828 404.929 414.141 388.131 416.143C384.398 416.62 380.64 416.874 376.877 416.905ZM394.138 389.363C386.623 389.365 379.146 390.429 371.928 392.524C369.909 393.103 365.209 394.858 365.308 398.284C365.407 401.71 370.819 403.25 372.474 403.465C383.021 405.347 393.866 404.678 404.101 401.512C406.22 400.85 408.355 400.072 410.407 399.327C413.237 398.284 416.117 397.225 419.079 396.447C419.113 396.166 419.113 395.883 419.079 395.603C418.698 393.848 416.895 392.607 413.568 391.763C407.215 390.165 400.689 389.358 394.138 389.363Z" fill="#E6E7E8"/>
<path d="M571.786 163.596H464.062C459.711 163.596 456.184 167.124 456.184 171.475V401.876C456.184 406.227 459.711 409.755 464.062 409.755H571.786C576.137 409.755 579.664 406.227 579.664 401.876V171.475C579.664 167.124 576.137 163.596 571.786 163.596Z" fill="white"/>
<path d="M571.786 410.549H464.062C461.763 410.545 459.56 409.629 457.935 408.004C456.309 406.378 455.394 404.175 455.39 401.876V171.458C455.394 169.159 456.309 166.956 457.935 165.33C459.56 163.705 461.763 162.79 464.062 162.785H571.786C574.088 162.785 576.295 163.698 577.924 165.324C579.553 166.951 580.47 169.157 580.475 171.458V401.876C580.47 404.178 579.553 406.384 577.924 408.01C576.295 409.636 574.088 410.549 571.786 410.549ZM464.062 164.391C462.188 164.391 460.39 165.135 459.065 166.461C457.74 167.786 456.995 169.584 456.995 171.458V401.876C456.995 403.75 457.74 405.548 459.065 406.873C460.39 408.199 462.188 408.943 464.062 408.943H571.786C573.66 408.943 575.458 408.199 576.783 406.873C578.108 405.548 578.853 403.75 578.853 401.876V171.458C578.853 169.584 578.108 167.786 576.783 166.461C575.458 165.135 573.66 164.391 571.786 164.391H464.062Z" fill="#231F20"/>
<path d="M573.176 185.858H462.672V375.294H573.176V185.858Z" fill="#FFB224"/>
<path d="M528.441 384.513H507.406C504.737 384.513 502.574 386.677 502.574 389.346V397.407C502.574 400.076 504.737 402.24 507.406 402.24H528.441C531.11 402.24 533.274 400.076 533.274 397.407V389.346C533.274 386.677 531.11 384.513 528.441 384.513Z" fill="white"/>
<path d="M528.425 403.034H507.423C505.926 403.034 504.491 402.44 503.432 401.381C502.374 400.323 501.779 398.887 501.779 397.39V389.363C501.779 387.866 502.374 386.43 503.432 385.372C504.491 384.313 505.926 383.719 507.423 383.719H528.425C529.167 383.716 529.903 383.861 530.59 384.143C531.276 384.426 531.9 384.841 532.426 385.366C532.952 385.89 533.369 386.513 533.654 387.199C533.938 387.885 534.085 388.62 534.085 389.363V397.39C534.081 398.889 533.482 400.324 532.421 401.382C531.36 402.44 529.923 403.034 528.425 403.034ZM507.423 385.324C506.352 385.324 505.325 385.75 504.568 386.507C503.81 387.264 503.385 388.292 503.385 389.363V397.39C503.385 398.461 503.81 399.489 504.568 400.246C505.325 401.003 506.352 401.429 507.423 401.429H528.425C529.496 401.429 530.523 401.003 531.28 400.246C532.038 399.489 532.463 398.461 532.463 397.39V389.363C532.463 388.292 532.038 387.264 531.28 386.507C530.523 385.75 529.496 385.324 528.425 385.324H507.423Z" fill="#E6E7E8"/>
<path d="M529.087 175.017H497.642C497.536 175.019 497.431 175 497.333 174.961C497.235 174.922 497.145 174.864 497.07 174.79C496.994 174.716 496.934 174.628 496.893 174.53C496.852 174.433 496.831 174.328 496.831 174.222C496.831 174.007 496.916 173.801 497.069 173.649C497.221 173.497 497.427 173.411 497.642 173.411H529.087C529.193 173.411 529.297 173.432 529.395 173.473C529.492 173.514 529.581 173.574 529.655 173.65C529.729 173.725 529.787 173.815 529.826 173.913C529.865 174.012 529.884 174.117 529.881 174.222C529.884 174.327 529.865 174.432 529.825 174.529C529.786 174.627 529.728 174.715 529.654 174.789C529.579 174.863 529.491 174.922 529.394 174.961C529.296 175 529.192 175.019 529.087 175.017Z" fill="#E6E7E8"/>
<path d="M537.709 175.017H533.489C533.279 175.017 533.076 174.933 532.928 174.784C532.779 174.635 532.695 174.433 532.695 174.222C532.695 174.01 532.778 173.806 532.926 173.655C533.075 173.503 533.277 173.416 533.489 173.411H537.709C537.925 173.411 538.131 173.497 538.283 173.649C538.435 173.801 538.52 174.007 538.52 174.222C538.52 174.328 538.499 174.433 538.458 174.53C538.417 174.628 538.357 174.716 538.282 174.79C538.206 174.864 538.117 174.922 538.019 174.961C537.92 175 537.815 175.019 537.709 175.017Z" fill="#E6E7E8"/>
<path d="M559.142 304.882H476.64C474.998 304.882 473.424 304.23 472.263 303.069C471.102 301.908 470.45 300.334 470.45 298.692V257.941C470.448 257.127 470.607 256.32 470.917 255.567C471.227 254.814 471.682 254.13 472.257 253.553C472.832 252.977 473.515 252.519 474.267 252.207C475.019 251.895 475.826 251.734 476.64 251.734H559.076C560.722 251.734 562.3 252.388 563.464 253.552C564.628 254.716 565.282 256.295 565.282 257.941V298.692C565.278 300.324 564.631 301.888 563.482 303.047C562.333 304.206 560.773 304.865 559.142 304.882ZM476.64 253.357C475.424 253.357 474.258 253.84 473.398 254.699C472.539 255.559 472.056 256.725 472.056 257.941V298.692C472.056 299.908 472.539 301.074 473.398 301.934C474.258 302.794 475.424 303.277 476.64 303.277H559.076C560.291 303.277 561.457 302.794 562.317 301.934C563.177 301.074 563.66 299.908 563.66 298.692V257.941C563.66 256.725 563.177 255.559 562.317 254.699C561.457 253.84 560.291 253.357 559.076 253.357H476.64Z" fill="white"/>
<path d="M471.311 300.198C471.145 300.195 470.984 300.141 470.849 300.043C470.715 299.945 470.614 299.809 470.56 299.652C470.505 299.495 470.501 299.325 470.546 299.165C470.592 299.005 470.686 298.863 470.814 298.758L511.66 266.432C511.818 266.312 512.015 266.254 512.213 266.269C512.412 266.284 512.598 266.372 512.736 266.515L537.114 291.806C537.264 291.958 537.349 292.164 537.349 292.377C537.349 292.591 537.264 292.797 537.114 292.948C537.04 293.023 536.952 293.081 536.856 293.121C536.759 293.161 536.656 293.182 536.551 293.182C536.446 293.182 536.343 293.161 536.246 293.121C536.15 293.081 536.062 293.023 535.988 292.948L512.123 268.121L471.841 300C471.695 300.13 471.506 300.201 471.311 300.198Z" fill="white"/>
<path d="M564.537 292.088C564.423 292.086 564.311 292.06 564.209 292.012C564.106 291.963 564.015 291.893 563.941 291.806L550.403 276.463L534.929 289.39C534.767 289.526 534.557 289.592 534.346 289.573C534.135 289.555 533.94 289.453 533.804 289.291C533.668 289.128 533.602 288.918 533.62 288.707C533.639 288.496 533.741 288.301 533.903 288.165L549.973 274.725C550.121 274.58 550.32 274.499 550.527 274.499C550.735 274.499 550.934 274.58 551.082 274.725L565.133 290.664C565.207 290.738 565.266 290.826 565.306 290.922C565.346 291.019 565.367 291.123 565.367 291.227C565.367 291.332 565.346 291.435 565.306 291.532C565.266 291.628 565.207 291.716 565.133 291.79C565.064 291.883 564.975 291.959 564.871 292.011C564.767 292.063 564.653 292.089 564.537 292.088Z" fill="white"/>
<path d="M536.534 273.335C535.293 273.338 534.077 272.972 533.043 272.284C532.009 271.596 531.203 270.617 530.726 269.47C530.249 268.323 530.124 267.06 530.365 265.842C530.607 264.623 531.204 263.504 532.083 262.626C532.961 261.747 534.08 261.15 535.298 260.908C536.517 260.667 537.779 260.792 538.926 261.269C540.073 261.746 541.052 262.552 541.74 263.587C542.428 264.621 542.794 265.836 542.79 267.078C542.786 268.736 542.126 270.325 540.953 271.497C539.781 272.67 538.192 273.33 536.534 273.335ZM536.534 262.41C535.611 262.407 534.707 262.678 533.937 263.189C533.167 263.7 532.567 264.428 532.211 265.28C531.855 266.133 531.76 267.072 531.938 267.978C532.117 268.885 532.56 269.718 533.212 270.373C533.864 271.027 534.696 271.473 535.601 271.655C536.507 271.836 537.446 271.745 538.3 271.392C539.154 271.039 539.884 270.441 540.397 269.673C540.911 268.905 541.185 268.002 541.185 267.078C541.185 265.843 540.696 264.658 539.824 263.783C538.952 262.908 537.769 262.415 536.534 262.41Z" fill="white"/>
<path d="M483.061 344.458H478.609C475.484 344.458 472.949 346.992 472.949 350.118V357.07C472.949 360.196 475.484 362.731 478.609 362.731H483.061C486.187 362.731 488.721 360.196 488.721 357.07V350.118C488.721 346.992 486.187 344.458 483.061 344.458Z" fill="white"/>
<path d="M507.787 344.458H503.335C500.209 344.458 497.675 346.992 497.675 350.118V357.07C497.675 360.196 500.209 362.731 503.335 362.731H507.787C510.913 362.731 513.447 360.196 513.447 357.07V350.118C513.447 346.992 510.913 344.458 507.787 344.458Z" fill="white"/>
<path d="M532.513 344.458H528.061C524.935 344.458 522.401 346.992 522.401 350.118V357.07C522.401 360.196 524.935 362.731 528.061 362.731H532.513C535.639 362.731 538.173 360.196 538.173 357.07V350.118C538.173 346.992 535.639 344.458 532.513 344.458Z" fill="white"/>
<path d="M557.239 344.458H552.787C549.661 344.458 547.126 346.992 547.126 350.118V357.07C547.126 360.196 549.661 362.731 552.787 362.731H557.239C560.365 362.731 562.899 360.196 562.899 357.07V350.118C562.899 346.992 560.365 344.458 557.239 344.458Z" fill="white"/>
<path d="M563.362 201.649H472.486C472.38 201.651 472.275 201.632 472.177 201.593C472.079 201.554 471.989 201.496 471.913 201.422C471.838 201.348 471.778 201.26 471.737 201.162C471.696 201.065 471.675 200.96 471.675 200.854C471.675 200.639 471.76 200.433 471.913 200.281C472.065 200.129 472.271 200.043 472.486 200.043H563.362C563.577 200.043 563.783 200.129 563.935 200.281C564.088 200.433 564.173 200.639 564.173 200.854C564.173 200.96 564.152 201.065 564.111 201.162C564.07 201.26 564.01 201.348 563.934 201.422C563.859 201.496 563.769 201.554 563.671 201.593C563.573 201.632 563.468 201.651 563.362 201.649Z" fill="white"/>
<path d="M563.362 214.46H472.486C472.266 214.46 472.056 214.373 471.901 214.217C471.746 214.062 471.658 213.852 471.658 213.632C471.658 213.413 471.746 213.202 471.901 213.047C472.056 212.892 472.266 212.805 472.486 212.805H563.362C563.581 212.805 563.792 212.892 563.947 213.047C564.102 213.202 564.19 213.413 564.19 213.632C564.19 213.852 564.102 214.062 563.947 214.217C563.792 214.373 563.581 214.46 563.362 214.46Z" fill="white"/>
<path d="M563.362 227.271H472.486C472.271 227.271 472.065 227.185 471.913 227.033C471.76 226.881 471.675 226.675 471.675 226.46C471.675 226.354 471.696 226.249 471.737 226.152C471.778 226.054 471.838 225.966 471.913 225.892C471.989 225.818 472.079 225.76 472.177 225.721C472.275 225.682 472.38 225.663 472.486 225.665H563.362C563.468 225.663 563.573 225.682 563.671 225.721C563.769 225.76 563.859 225.818 563.934 225.892C564.01 225.966 564.07 226.054 564.111 226.152C564.152 226.249 564.173 226.354 564.173 226.46C564.173 226.675 564.088 226.881 563.935 227.033C563.783 227.185 563.577 227.271 563.362 227.271Z" fill="white"/>
<path d="M563.362 240.082H472.486C472.266 240.082 472.056 239.995 471.901 239.84C471.746 239.684 471.658 239.474 471.658 239.254C471.658 239.035 471.746 238.824 471.901 238.669C472.056 238.514 472.266 238.427 472.486 238.427H563.362C563.581 238.427 563.792 238.514 563.947 238.669C564.102 238.824 564.19 239.035 564.19 239.254C564.19 239.474 564.102 239.684 563.947 239.84C563.792 239.995 563.581 240.082 563.362 240.082Z" fill="white"/>
<path d="M563.362 319.431H472.486C472.266 319.431 472.056 319.344 471.901 319.189C471.746 319.034 471.658 318.823 471.658 318.604C471.658 318.384 471.746 318.174 471.901 318.019C472.056 317.863 472.266 317.776 472.486 317.776H563.362C563.581 317.776 563.792 317.863 563.947 318.019C564.102 318.174 564.19 318.384 564.19 318.604C564.19 318.823 564.102 319.034 563.947 319.189C563.792 319.344 563.581 319.431 563.362 319.431Z" fill="white"/>
<path d="M563.362 332.259H472.486C472.38 332.261 472.275 332.242 472.177 332.203C472.079 332.164 471.989 332.106 471.913 332.032C471.838 331.958 471.778 331.87 471.737 331.772C471.696 331.675 471.675 331.57 471.675 331.464C471.675 331.249 471.76 331.043 471.913 330.891C472.065 330.739 472.271 330.653 472.486 330.653H563.362C563.577 330.653 563.783 330.739 563.935 330.891C564.088 331.043 564.173 331.249 564.173 331.464C564.173 331.57 564.152 331.675 564.111 331.772C564.07 331.87 564.01 331.958 563.934 332.032C563.859 332.106 563.769 332.164 563.671 332.203C563.573 332.242 563.468 332.261 563.362 332.259Z" fill="white"/>
<path d="M546.431 77.1131C546.431 77.1131 548.467 68.4399 546.58 63.5075C546.025 62.1165 545.044 60.9368 543.778 60.1371C542.511 59.3374 541.025 58.9587 539.53 59.055C539.53 59.055 525.827 56.0095 521.871 52.4343L523.659 58.7571C521.274 58.5896 518.946 57.954 516.807 56.8868C516.531 57.9677 516.549 59.1028 516.861 60.1741C517.172 61.2454 517.765 62.2136 518.578 62.9778C517.591 63.4507 516.511 63.6961 515.417 63.6961C514.322 63.6961 513.242 63.4507 512.256 62.9778C512.256 62.9778 516.012 72.1972 524.751 71.2537C530.444 70.4096 540.523 79.0165 546.431 77.1131Z" fill="white"/>
<path d="M544.495 78.2055C541.367 78.2055 537.71 76.5503 534.135 74.8951C530.56 73.2399 527.2 71.5848 524.801 71.9324C515.549 73.0082 511.561 63.342 511.461 63.2427C511.402 63.0866 511.392 62.9162 511.434 62.7544C511.475 62.5927 511.565 62.4477 511.692 62.3391C511.818 62.2305 511.975 62.1636 512.141 62.1476C512.308 62.1316 512.475 62.1672 512.62 62.2495C513.997 62.9685 515.599 63.1228 517.088 62.6799C516.484 61.8255 516.073 60.8506 515.881 59.822C515.69 58.7935 515.723 57.7357 515.979 56.7212C516.006 56.6081 516.059 56.5027 516.134 56.4136C516.208 56.3245 516.303 56.2541 516.41 56.2081C516.517 56.1631 516.632 56.1399 516.749 56.1399C516.865 56.1399 516.981 56.1631 517.088 56.2081C518.815 57.0026 520.641 57.5594 522.517 57.8633L521.044 52.6661C520.998 52.4971 521.007 52.3179 521.069 52.1543C521.132 51.9907 521.244 51.8512 521.391 51.7557C521.54 51.6646 521.714 51.6249 521.888 51.6429C522.061 51.6608 522.224 51.7354 522.351 51.855C525.926 55.1654 538.223 57.9626 539.547 58.2771C541.203 58.1688 542.85 58.5919 544.249 59.4851C545.649 60.3782 546.726 61.6946 547.325 63.2427C549.295 68.3406 547.325 76.9475 547.209 77.3117C547.183 77.4453 547.122 77.5695 547.032 77.6714C546.942 77.7733 546.826 77.8491 546.696 77.891C545.984 78.1133 545.241 78.2195 544.495 78.2055ZM525.363 70.2275C528.077 70.2275 531.354 71.7668 534.813 73.3724C538.769 75.2262 542.857 77.1296 545.753 76.4675C546.134 74.6468 547.408 67.811 545.836 63.8054C545.34 62.5622 544.462 61.5088 543.329 60.7977C542.195 60.0865 540.865 59.7545 539.53 59.8495H539.282C538.785 59.7337 528.475 57.433 523.179 54.3709L524.354 58.5254C524.387 58.6463 524.392 58.7732 524.369 58.8965C524.346 59.0198 524.296 59.1363 524.221 59.2371C524.145 59.3356 524.047 59.4152 523.935 59.4697C523.823 59.5242 523.7 59.5523 523.576 59.5516C521.427 59.4237 519.318 58.9078 517.353 58.0288C517.258 58.8292 517.358 59.6407 517.647 60.3934C517.935 61.146 518.402 61.8172 519.008 62.3489C519.108 62.4369 519.185 62.5473 519.234 62.671C519.283 62.7947 519.302 62.9282 519.289 63.0606C519.276 63.1952 519.228 63.3241 519.149 63.4344C519.071 63.5447 518.965 63.6326 518.843 63.6896C517.288 64.3901 515.562 64.6202 513.878 64.3516C515.4 66.8344 518.842 70.9723 524.618 70.2937C524.865 70.2546 525.114 70.2325 525.363 70.2275Z" fill="#231F20"/>
<path d="M558 149.693C558 149.693 569.949 123.557 568.493 106.426C567.036 89.2952 555.815 88.2193 551.943 88.0041C548.07 87.789 527.432 85.0083 519.902 94.2276C512.371 103.447 514.324 147.855 514.324 147.855L558 149.693Z" fill="#FFB224"/>
<path d="M513.447 139.066C504.659 143.087 496.265 147.919 488.374 153.5C481.39 158.233 477.434 208.203 477.434 208.203C477.434 208.203 478.874 216.231 488.159 214.973L512.603 159.309C512.603 159.309 521.325 138.851 513.447 139.066Z" fill="#231F20"/>
<path d="M486.256 215.867C484.02 215.924 481.835 215.197 480.079 213.813C478.323 212.428 477.107 210.473 476.64 208.286C476.632 208.22 476.632 208.153 476.64 208.087C477.054 202.923 480.844 157.604 487.927 152.788C495.876 147.198 504.325 142.355 513.166 138.322C513.258 138.297 513.355 138.297 513.447 138.322C514.066 138.275 514.687 138.391 515.247 138.658C515.807 138.925 516.288 139.334 516.641 139.844C519.736 144.396 514.026 158.051 513.331 159.707L488.887 215.387C488.831 215.512 488.744 215.62 488.633 215.701C488.523 215.782 488.394 215.834 488.258 215.85C487.592 215.901 486.923 215.907 486.256 215.867ZM478.295 208.121C478.477 208.981 480.066 214.99 487.662 214.195L511.925 158.962C513.58 154.989 517.552 143.933 515.35 140.755C515.168 140.487 514.92 140.271 514.63 140.126C514.341 139.981 514.019 139.913 513.695 139.927C505.016 143.942 496.709 148.717 488.87 154.195C483.376 157.82 479.354 194.217 478.295 208.121Z" fill="#231F20"/>
<path d="M558.976 144.197C558.976 144.197 523.874 145.207 515.615 143.999C515.615 143.999 515.152 144.098 509.095 155.254C503.037 166.41 511.743 217.406 511.743 217.406C511.743 217.406 519.72 225.847 526.025 224.639L533.489 166.493C533.489 166.493 546.216 166.873 553.349 161.809C558.248 158.25 558.033 150.653 558.976 144.197Z" fill="#231F20"/>
<path d="M524.734 225.566C518.412 225.566 511.494 218.283 511.147 217.952C511.039 217.839 510.969 217.694 510.948 217.538C510.584 215.453 502.259 166.228 508.383 154.873C514.506 143.519 515.003 143.287 515.45 143.287H515.731C523.824 144.495 558.612 143.502 558.96 143.486C559.078 143.478 559.197 143.498 559.307 143.544C559.417 143.59 559.515 143.66 559.593 143.75C559.671 143.839 559.728 143.946 559.759 144.061C559.79 144.176 559.794 144.296 559.771 144.413C559.605 145.604 559.456 146.846 559.324 148.087C558.711 153.682 558.083 159.458 553.746 162.57C547.457 167.072 537.064 167.403 534.201 167.403L526.82 224.672C526.799 224.841 526.725 224.999 526.609 225.124C526.493 225.249 526.341 225.334 526.174 225.367C525.701 225.476 525.219 225.543 524.734 225.566ZM512.487 217.025C513.596 218.151 520.067 224.407 525.297 223.927L532.695 166.393C532.716 166.193 532.814 166.008 532.968 165.879C533.123 165.749 533.321 165.684 533.522 165.698C533.655 165.698 546.051 165.996 552.82 161.163C556.56 158.465 557.156 153.053 557.785 147.806C557.884 146.879 557.983 145.935 558.099 145.025C552.439 145.174 524.221 145.869 516.012 144.843C515.532 145.538 514.06 147.872 509.839 155.635C504.146 166.046 511.842 213.169 512.487 217.025Z" fill="#231F20"/>
<path d="M519.885 94.2276C519.885 94.2276 514.324 104.937 511.048 110.432C507.913 115.147 504.434 119.622 500.638 123.822C500.638 123.822 475.399 132.793 475.25 133.273C475.101 133.753 477.633 142.244 477.633 142.244C477.633 142.244 504.113 140.341 508.482 138.272C512.851 136.203 521.722 126.024 521.722 126.024L519.885 94.2276Z" fill="#FFB224"/>
<path d="M530.163 88.4841L531.669 97.6207C532.61 98.9769 534.013 99.9436 535.615 100.34C537.218 100.736 538.91 100.534 540.374 99.7724C546.15 97.2235 546.15 92.8538 546.15 92.8538L543.072 75.9709C543.072 75.9709 537.743 73.902 534.979 63.5074C534.979 63.5074 521.739 64.5171 522.649 69.4661C522.649 69.4661 522.483 78.7847 523.89 83.3199C524.395 84.6528 525.239 85.8305 526.34 86.7364C527.44 87.6422 528.758 88.2447 530.163 88.4841Z" fill="white"/>
<path d="M537.13 101.328C535.92 101.29 534.736 100.971 533.67 100.397C532.605 99.8221 531.687 99.0078 530.99 98.018C530.937 97.9248 530.898 97.8244 530.874 97.72L529.451 89.0966C527.998 88.8062 526.647 88.1399 525.531 87.164C524.416 86.1882 523.576 84.9369 523.096 83.5352C521.656 78.9172 521.805 69.7972 521.805 69.4165C521.742 68.9617 521.774 68.4988 521.899 68.0571C522.025 67.6155 522.241 67.2047 522.533 66.8509C525.132 63.5406 533.886 62.7461 534.879 62.6799C535.067 62.6656 535.255 62.7172 535.409 62.826C535.563 62.9347 535.674 63.0938 535.724 63.2758C538.322 73.0579 543.287 75.1765 543.337 75.193C543.463 75.2417 543.576 75.3219 543.662 75.4263C543.749 75.5306 543.808 75.6554 543.833 75.7889L546.911 92.6717C546.911 93.0193 546.911 97.7863 540.705 100.484C539.585 101.011 538.368 101.299 537.13 101.328ZM532.43 97.3062C533.282 98.4625 534.522 99.274 535.922 99.593C537.322 99.912 538.791 99.7172 540.06 99.0442C545.19 96.7931 545.323 93.0028 545.323 92.8373L542.327 76.5172C540.97 75.8055 536.799 72.942 534.35 64.3682C531.47 64.6661 525.496 65.6923 523.791 67.8772C523.625 68.074 523.504 68.3053 523.439 68.5543C523.373 68.8034 523.363 69.0639 523.41 69.3172C523.41 69.5654 523.278 78.7186 524.635 83.0883C525.071 84.2805 525.818 85.3344 526.799 86.1405C527.78 86.9467 528.958 87.4758 530.212 87.6731L530.543 87.7724C530.65 87.833 530.743 87.9162 530.814 88.0163C530.886 88.1164 530.935 88.2309 530.957 88.3517L532.43 97.3062Z" fill="#231F20"/>
<path d="M539.53 76.302C539.595 75.447 539.931 74.6351 540.49 73.9847C541.038 73.4 541.682 72.9131 542.393 72.5447C542.764 72.3091 543.182 72.1566 543.618 72.0978C543.929 72.0951 544.238 72.1512 544.528 72.2633C545.206 72.475 545.79 72.9133 546.183 73.5047C546.441 74.0179 546.572 74.5856 546.564 75.1599C546.61 75.7974 546.566 76.4384 546.431 77.0634C546.288 77.6843 546.022 78.2704 545.65 78.7876C545.278 79.3048 544.806 79.7427 544.263 80.0758C543.164 80.7334 541.854 80.9409 540.606 80.6551" fill="white"/>
<path d="M541.731 81.6483C541.285 81.6431 540.841 81.5876 540.407 81.4827C540.199 81.4318 540.019 81.3004 539.908 81.1174C539.796 80.9344 539.761 80.7147 539.811 80.5062C539.836 80.4034 539.882 80.3067 539.945 80.2217C540.008 80.1368 540.087 80.0652 540.178 80.0112C540.269 79.9573 540.37 79.922 540.474 79.9075C540.579 79.893 540.686 79.8996 540.788 79.9269C541.832 80.1627 542.927 79.991 543.85 79.4469C544.756 78.8759 545.404 77.9729 545.654 76.931C545.763 76.3865 545.802 75.8302 545.769 75.2758C545.784 74.8182 545.688 74.3638 545.488 73.9517C545.183 73.5085 544.732 73.1864 544.214 73.0413C544.02 72.9798 543.82 72.941 543.618 72.9255C543.303 72.9831 543.004 73.1072 542.741 73.2896C542.122 73.6051 541.562 74.0251 541.086 74.531C540.633 75.0474 540.366 75.6995 540.324 76.3848C540.307 76.5984 540.208 76.7972 540.048 76.9392C539.887 77.0812 539.678 77.1554 539.464 77.1462C539.358 77.1399 539.254 77.1125 539.159 77.0656C539.064 77.0187 538.979 76.9532 538.91 76.8729C538.84 76.7927 538.788 76.6994 538.755 76.5985C538.722 76.4976 538.71 76.3912 538.719 76.2855C538.791 75.255 539.191 74.2746 539.861 73.4882C540.462 72.8141 541.18 72.2535 541.979 71.833C542.481 71.5223 543.047 71.3298 543.634 71.2703C544.052 71.2692 544.467 71.3421 544.859 71.4855C545.751 71.7534 546.512 72.3433 546.994 73.1406C547.326 73.7796 547.496 74.4898 547.491 75.2096C547.532 75.9193 547.482 76.6314 547.342 77.3282C547.048 78.5657 546.346 79.6681 545.349 80.4578C544.352 81.2476 543.119 81.6786 541.847 81.6814L541.731 81.6483Z" fill="#231F20"/>
<path d="M531.156 73.8524C531.156 73.8524 528.673 79.0165 529.501 79.7282C530.328 80.44 532.397 79.5958 532.397 79.5958" fill="white"/>
<path d="M530.56 80.8041C530.014 80.8314 529.476 80.6675 529.037 80.3406C528.69 80.0593 527.68 79.2317 530.444 73.5047C530.537 73.3165 530.699 73.1717 530.897 73.1007C531.094 73.0297 531.312 73.0381 531.503 73.1241C531.6 73.1684 531.687 73.2317 531.759 73.3103C531.831 73.3888 531.886 73.481 531.921 73.5814C531.957 73.6817 531.972 73.7882 531.965 73.8945C531.959 74.0007 531.931 74.1046 531.884 74.1999C531.079 75.7598 530.521 77.4348 530.229 79.1655C530.896 79.2455 531.573 79.1366 532.182 78.851C532.38 78.7726 532.6 78.7736 532.798 78.8538C532.995 78.934 533.154 79.0871 533.241 79.2813C533.282 79.3802 533.302 79.4861 533.301 79.5929C533.301 79.6998 533.279 79.8054 533.238 79.9039C533.196 80.0023 533.136 80.0915 533.06 80.1665C532.983 80.2415 532.893 80.3006 532.794 80.3406C532.083 80.6283 531.326 80.7853 530.56 80.8041Z" fill="#231F20"/>
<path d="M535.24 73.6378C535.677 73.5934 535.98 73.0635 535.918 72.4542C535.857 71.8449 535.453 71.3868 535.016 71.4312C534.58 71.4755 534.276 72.0054 534.338 72.6148C534.4 73.2241 534.804 73.6821 535.24 73.6378Z" fill="#231F20"/>
<path d="M528.539 74.8186C528.976 74.7773 529.283 74.2496 529.225 73.6398C529.168 73.0301 528.767 72.5692 528.33 72.6105C527.893 72.6518 527.586 73.1796 527.644 73.7894C527.701 74.3991 528.102 74.8599 528.539 74.8186Z" fill="#231F20"/>
<path d="M531.884 84.8593C530.368 84.8272 528.87 84.5187 527.465 83.9489C527.367 83.9076 527.279 83.8471 527.205 83.7711C527.131 83.6952 527.073 83.6052 527.035 83.5065C526.996 83.4077 526.978 83.3023 526.981 83.1964C526.984 83.0904 527.007 82.9861 527.051 82.8896C527.141 82.6983 527.302 82.5489 527.498 82.4719C527.695 82.395 527.914 82.3964 528.11 82.4758C528.11 82.4758 531.867 84.131 534.399 82.691C535.062 82.2607 535.617 81.6825 536.019 81.0019C536.421 80.3212 536.66 79.5567 536.716 78.7682C536.752 78.5487 536.872 78.3522 537.052 78.2218C537.232 78.0914 537.457 78.0379 537.676 78.073C537.896 78.1081 538.092 78.229 538.223 78.4091C538.353 78.5891 538.407 78.8135 538.371 79.033C538.28 80.0644 537.948 81.0598 537.401 81.9395C536.855 82.8191 536.111 83.5584 535.227 84.0979C534.199 84.6409 533.046 84.9035 531.884 84.8593Z" fill="#231F20"/>
<path d="M530.163 88.4841C530.163 88.4841 536.054 88.8482 539.1 86.382C539.1 86.382 536.65 94.6579 531.205 94.6579L530.163 88.4841Z" fill="#231F20"/>
<path d="M531.255 95.5683C531.065 95.5699 530.881 95.5017 530.737 95.3766C530.594 95.2516 530.501 95.0783 530.477 94.8897L529.435 88.6331C529.412 88.5123 529.418 88.3879 529.452 88.2699C529.487 88.152 529.549 88.0439 529.633 87.9545C529.713 87.8641 529.813 87.7933 529.925 87.7474C530.037 87.7015 530.158 87.6818 530.279 87.6896C530.279 87.6896 535.906 88.0041 538.653 85.7696C538.788 85.6663 538.952 85.6081 539.122 85.603C539.292 85.598 539.459 85.6464 539.6 85.7416C539.74 85.8367 539.848 85.9737 539.907 86.1331C539.965 86.2926 539.973 86.4665 539.927 86.6303C539.828 86.9779 537.263 95.469 531.272 95.5683H531.255ZM531.255 89.3283L532.016 93.8966C534.83 93.4166 536.7 90.3379 537.676 88.2193C535.571 88.9797 533.344 89.3499 531.106 89.3117L531.255 89.3283Z" fill="#231F20"/>
<path d="M562.899 92.2579C567.615 93.0855 586.697 137.213 580.16 142.244C569.965 150.106 534.482 142.244 534.482 142.244L537.378 128.556C537.378 128.556 560.184 129.202 560.548 124.517C560.913 119.833 547.308 98.1503 549.063 94.9062C550.817 91.662 562.899 92.2579 562.899 92.2579Z" fill="#FFB224"/>
<path d="M539.828 132.992C536.04 133.233 532.238 133.05 528.491 132.446C525.718 131.772 522.872 131.444 520.018 131.469C516.257 131.648 512.559 132.494 509.095 133.968C508.947 134.015 508.816 134.101 508.714 134.217C508.383 134.68 509.177 135.144 509.757 135.16C511.26 135.189 512.76 135 514.209 134.597C510.623 135.923 507.232 137.727 504.13 139.96C503.765 140.208 503.385 140.606 503.55 141.003C503.716 141.4 504.444 141.334 504.907 141.119L513.05 137.395C510.938 138.242 508.98 139.433 507.257 140.92C507.026 141.135 506.744 141.417 506.827 141.731C506.91 142.046 507.754 142.178 508.267 141.93C510.748 140.689 513.117 139.238 515.35 137.593L510.385 141.466C510.385 141.864 510.766 142.211 511.18 142.228C511.595 142.202 511.995 142.064 512.338 141.831L517.949 138.52L514.457 140.97C513.894 141.351 513.265 141.98 513.546 142.625C513.828 143.271 514.937 143.122 515.665 142.807C518.543 141.559 521.552 140.638 524.635 140.06C525.709 139.709 526.82 139.482 527.945 139.381C529.679 139.61 531.389 139.986 533.059 140.506C535.608 141.069 538.14 141.649 540.672 142.162" fill="white"/>
<path d="M514.357 143.866C514.115 143.871 513.874 143.832 513.646 143.751C513.459 143.682 513.287 143.576 513.142 143.44C512.997 143.303 512.881 143.139 512.802 142.956C512.729 142.795 512.689 142.62 512.686 142.443C512.23 142.765 511.688 142.943 511.13 142.956C510.905 142.945 510.685 142.887 510.483 142.788C510.281 142.688 510.101 142.548 509.955 142.377C509.862 142.266 509.784 142.144 509.723 142.013C509.376 142.211 509.012 142.393 508.648 142.575C508.372 142.727 508.066 142.818 507.752 142.841C507.438 142.864 507.122 142.818 506.827 142.708C506.658 142.629 506.511 142.511 506.396 142.364C506.281 142.218 506.202 142.046 506.165 141.864C506.132 141.7 506.132 141.531 506.165 141.367L505.271 141.781C504.762 142.049 504.169 142.108 503.616 141.946C503.461 141.89 503.319 141.802 503.199 141.688C503.08 141.574 502.985 141.437 502.921 141.284C502.772 140.97 502.59 140.159 503.732 139.348C505.558 138.031 507.484 136.858 509.492 135.839C509.199 135.806 508.917 135.707 508.667 135.549C508.418 135.391 508.208 135.179 508.052 134.928C507.961 134.745 507.923 134.539 507.94 134.335C507.958 134.131 508.031 133.936 508.151 133.77C508.326 133.544 508.561 133.372 508.83 133.273C512.377 131.763 516.166 130.9 520.017 130.724C522.573 130.664 525.126 130.931 527.614 131.519L528.657 131.701C532.354 132.296 536.106 132.48 539.844 132.247C540.036 132.247 540.221 132.321 540.36 132.453C540.498 132.586 540.581 132.767 540.589 132.959C540.59 133.152 540.516 133.339 540.384 133.48C540.252 133.622 540.071 133.708 539.877 133.72C536.034 133.946 532.178 133.757 528.375 133.157L527.316 132.959C524.941 132.402 522.506 132.141 520.067 132.181C516.586 132.357 513.159 133.106 509.922 134.399C511.309 134.429 512.692 134.25 514.026 133.869C514.211 133.808 514.412 133.822 514.586 133.909C514.76 133.996 514.892 134.148 514.953 134.333C515.015 134.517 515 134.718 514.913 134.892C514.827 135.066 514.674 135.198 514.49 135.259C511.044 136.53 507.778 138.244 504.775 140.357L510.849 137.577C511.478 137.262 512.107 136.964 512.752 136.716C512.93 136.639 513.131 136.636 513.311 136.708C513.491 136.779 513.635 136.919 513.712 137.097C513.789 137.274 513.792 137.476 513.72 137.656C513.649 137.836 513.509 137.98 513.331 138.057L511.494 138.901C510.259 139.545 509.094 140.316 508.019 141.202C510.44 139.99 512.749 138.566 514.92 136.948C514.997 136.89 515.085 136.847 515.178 136.823C515.272 136.799 515.369 136.794 515.464 136.808C515.56 136.822 515.652 136.854 515.734 136.904C515.817 136.953 515.889 137.019 515.946 137.097C516.005 137.173 516.049 137.259 516.074 137.352C516.099 137.445 516.106 137.542 516.094 137.637C516.082 137.733 516.05 137.825 516.002 137.908C515.954 137.992 515.89 138.065 515.814 138.123L511.809 141.168H511.908L517.518 137.858C517.681 137.785 517.865 137.772 518.037 137.823C518.208 137.874 518.355 137.985 518.452 138.136C518.548 138.286 518.587 138.466 518.562 138.643C518.536 138.82 518.448 138.982 518.313 139.099L514.804 141.549C514.242 141.946 514.126 142.244 514.142 142.277C514.54 142.355 514.952 142.285 515.301 142.079C518.237 140.803 521.307 139.86 524.453 139.265L525.512 138.984C526.298 138.731 527.119 138.602 527.945 138.603C529.21 138.702 530.459 138.946 531.669 139.331C532.198 139.48 532.711 139.629 533.208 139.728L540.821 141.483C540.914 141.505 541.003 141.545 541.081 141.6C541.159 141.656 541.225 141.727 541.276 141.808C541.326 141.89 541.36 141.981 541.376 142.075C541.392 142.17 541.389 142.267 541.367 142.36C541.345 142.454 541.305 142.542 541.25 142.62C541.194 142.698 541.123 142.764 541.042 142.815C540.96 142.866 540.869 142.9 540.775 142.916C540.68 142.931 540.583 142.928 540.49 142.906C537.958 142.327 535.426 141.731 532.877 141.251C532.364 141.135 531.834 140.986 531.222 140.837C530.146 140.492 529.036 140.265 527.912 140.159C527.224 140.17 526.542 140.293 525.893 140.523C525.512 140.622 525.131 140.738 524.734 140.804C521.696 141.398 518.732 142.325 515.897 143.568C515.408 143.768 514.885 143.869 514.357 143.866Z" fill="#231F20"/>
<path d="M522.335 98.1007C521.077 99.3752 517.916 119.436 516.757 128.904L522.335 98.1007Z" fill="white"/>
<path d="M516.757 129.648H516.658C516.467 129.624 516.294 129.524 516.176 129.373C516.058 129.221 516.005 129.028 516.029 128.837C516.741 122.945 520.15 99.2925 521.821 97.5876C521.963 97.4776 522.14 97.4224 522.319 97.4322C522.498 97.442 522.668 97.5161 522.796 97.641C522.925 97.7658 523.005 97.9329 523.02 98.1117C523.036 98.2904 522.986 98.4687 522.881 98.6138C521.805 100.087 518.76 118.575 517.485 129.019C517.458 129.194 517.37 129.352 517.236 129.467C517.103 129.583 516.933 129.647 516.757 129.648Z" fill="#231F20"/>
<path d="M474.737 147.789L475.299 151.546L527.233 159.127L526.356 155.254L474.737 147.789Z" fill="white"/>
<path d="M527.233 159.938H527.118L475.184 152.341C475.013 152.315 474.855 152.235 474.733 152.113C474.611 151.991 474.531 151.833 474.505 151.662L473.942 147.905C473.919 147.78 473.926 147.652 473.964 147.531C474.001 147.41 474.068 147.299 474.158 147.21C474.25 147.123 474.36 147.058 474.48 147.018C474.6 146.978 474.727 146.964 474.853 146.978L526.472 154.46C526.631 154.483 526.78 154.553 526.898 154.663C527.017 154.772 527.099 154.915 527.134 155.072L527.945 158.962C527.979 159.086 527.98 159.217 527.948 159.342C527.916 159.466 527.852 159.581 527.763 159.673C527.627 159.827 527.437 159.921 527.233 159.938ZM475.928 150.835L526.125 158.167L525.628 155.966L475.614 148.733L475.928 150.835Z" fill="#231F20"/>
<path d="M474.737 147.789C474.737 147.789 486.553 137.643 486.951 137.742C487.348 137.842 540.457 144.197 540.457 144.197L526.29 155.254L474.737 147.789Z" fill="white"/>
<path d="M526.29 156.065L474.621 148.534C474.467 148.509 474.324 148.442 474.206 148.34C474.089 148.237 474.004 148.104 473.959 147.955C473.914 147.808 473.913 147.651 473.958 147.503C474.002 147.356 474.089 147.225 474.207 147.127C486.355 136.699 486.62 136.782 487.133 136.898C487.927 137.031 522.434 141.168 540.556 143.337C540.715 143.358 540.865 143.425 540.986 143.531C541.107 143.638 541.193 143.777 541.235 143.933C541.282 144.085 541.281 144.249 541.23 144.4C541.18 144.552 541.083 144.683 540.953 144.777L526.853 155.833C526.779 155.907 526.691 155.965 526.594 156.005C526.498 156.045 526.394 156.065 526.29 156.065ZM476.64 147.243L526.158 154.41L538.471 144.76C522.483 142.84 490.707 139.033 487.166 138.57C485.974 139.315 480.595 143.833 476.64 147.243Z" fill="#231F20"/>
<path d="M527.233 159.127L540.788 147.789L540.457 144.197L526.356 155.254L527.233 159.127Z" fill="white"/>
<path d="M527.233 159.938C527.151 159.954 527.067 159.954 526.985 159.938C526.853 159.899 526.733 159.824 526.64 159.722C526.547 159.62 526.483 159.494 526.456 159.359L525.578 155.486C525.541 155.338 525.547 155.182 525.597 155.038C525.647 154.894 525.738 154.767 525.86 154.675L539.96 143.569C540.075 143.479 540.212 143.421 540.356 143.403C540.5 143.384 540.647 143.404 540.781 143.462C540.915 143.52 541.03 143.612 541.116 143.73C541.202 143.848 541.254 143.986 541.268 144.131L541.582 147.723C541.596 147.853 541.578 147.985 541.529 148.106C541.48 148.227 541.401 148.334 541.301 148.418L527.746 159.773C527.598 159.883 527.418 159.941 527.233 159.938ZM527.233 155.569L527.713 157.671L539.927 147.442L539.778 145.786L527.233 155.569Z" fill="#231F20"/>
<path d="M474.737 147.789L464.757 114.338L519.504 123.673L526.356 155.254L474.737 147.789Z" fill="white"/>
<path d="M526.29 156.065L474.621 148.534C474.466 148.513 474.32 148.447 474.202 148.344C474.085 148.241 474 148.106 473.959 147.955L464.029 114.52C463.991 114.389 463.987 114.249 464.017 114.116C464.047 113.982 464.11 113.858 464.201 113.756C464.292 113.654 464.407 113.576 464.536 113.53C464.665 113.484 464.804 113.472 464.939 113.494L519.67 122.879C519.826 122.905 519.971 122.977 520.086 123.086C520.201 123.195 520.281 123.336 520.315 123.491L527.134 155.155C527.164 155.28 527.162 155.412 527.127 155.536C527.092 155.661 527.026 155.774 526.935 155.866C526.849 155.945 526.746 156.003 526.635 156.038C526.523 156.072 526.406 156.081 526.29 156.065ZM475.283 147.061L525.264 154.294L518.826 124.368L465.866 115.348L475.283 147.061Z" fill="#231F20"/>
<path d="M551.744 147.011H551.612L540.54 145.108C540.355 145.074 540.187 144.979 540.064 144.838C539.941 144.696 539.869 144.517 539.861 144.33L539.513 131.088C539.504 130.885 539.576 130.686 539.712 130.534C539.848 130.382 540.038 130.29 540.242 130.277L559.82 128.258L551.115 98.3159C551.058 98.1118 551.084 97.8936 551.186 97.7081C551.288 97.5225 551.458 97.3842 551.661 97.3228C551.763 97.2922 551.87 97.2822 551.977 97.2931C552.083 97.304 552.185 97.3358 552.279 97.3865C552.373 97.4372 552.456 97.506 552.523 97.5888C552.59 97.6715 552.64 97.7668 552.671 97.869L561.624 128.672C561.658 128.783 561.667 128.9 561.649 129.014C561.632 129.129 561.59 129.238 561.525 129.334C561.459 129.432 561.374 129.515 561.274 129.577C561.174 129.64 561.062 129.681 560.946 129.698L541.086 131.734L541.417 143.602L551.843 145.389C551.952 145.399 552.058 145.43 552.154 145.481C552.251 145.531 552.337 145.6 552.407 145.684C552.476 145.768 552.529 145.865 552.562 145.969C552.594 146.073 552.606 146.183 552.596 146.291C552.586 146.4 552.555 146.506 552.505 146.602C552.454 146.699 552.385 146.785 552.301 146.855C552.217 146.925 552.121 146.977 552.017 147.01C551.912 147.042 551.803 147.054 551.694 147.044L551.744 147.011Z" fill="#231F20"/>
<path d="M479.106 199.282C478.194 198.438 477.238 197.643 476.243 196.898C474.091 195.243 469.474 192.909 468.15 196.716C467.322 199.067 468.597 202.195 469.474 204.363C471.206 208.51 473.848 212.215 477.203 215.205C480.132 217.853 489.466 221.676 488.788 214.294C488.608 212.958 488.181 211.667 487.53 210.487C485.424 206.273 482.57 202.476 479.106 199.282Z" fill="white"/>
<path d="M485.345 219.326C482.167 219.069 479.151 217.818 476.723 215.751C473.283 212.688 470.574 208.893 468.795 204.645C467.902 202.427 466.545 199.1 467.455 196.468C467.617 195.916 467.912 195.413 468.312 195C468.713 194.588 469.208 194.279 469.755 194.101C472.453 193.29 476.011 195.756 476.69 196.319C477.701 197.074 478.673 197.881 479.602 198.736C483.142 201.987 486.059 205.857 488.208 210.156C488.899 211.42 489.348 212.8 489.532 214.228C489.797 217.108 488.606 218.35 487.546 218.863C486.86 219.191 486.105 219.349 485.345 219.326ZM470.914 195.409C470.667 195.406 470.422 195.439 470.186 195.508C469.857 195.617 469.561 195.807 469.326 196.062C469.092 196.317 468.926 196.628 468.845 196.965C468.117 199.05 469.341 202.079 470.152 204.082C471.845 208.128 474.424 211.742 477.699 214.658C479.785 216.562 484.683 218.664 486.901 217.555C487.844 217.075 488.225 216.032 488.076 214.361C487.895 213.118 487.492 211.918 486.884 210.818C484.831 206.674 482.025 202.947 478.609 199.828C477.716 199 476.772 198.173 475.812 197.494C474.413 196.345 472.713 195.621 470.914 195.409Z" fill="#231F20"/>
<path d="M510.634 203.403C509.996 202.957 509.226 202.741 508.449 202.791C507.962 202.907 507.516 203.153 507.158 203.503C506.491 204.19 505.987 205.018 505.684 205.926C505.38 206.834 505.284 207.799 505.404 208.749C505.642 210.646 506.231 212.481 507.142 214.162C509.674 219.425 513.1 224.523 518.181 227.403C519.092 227.945 520.088 228.331 521.126 228.545C530.163 230.201 526.422 221.23 524.205 217.174C521.061 211.402 516.359 206.631 510.634 203.403Z" fill="white"/>
<path d="M523.063 229.439C522.369 229.433 521.677 229.366 520.994 229.241C519.879 229.012 518.811 228.598 517.833 228.016C513.364 225.5 509.657 221.081 506.48 214.493C505.539 212.724 504.922 210.802 504.659 208.816C504.528 207.754 504.64 206.676 504.987 205.663C505.334 204.651 505.906 203.731 506.662 202.973C507.115 202.521 507.69 202.211 508.317 202.079C509.257 201.989 510.199 202.229 510.981 202.758C516.816 206.052 521.619 210.907 524.85 216.777C526.505 219.723 528.872 225.053 526.886 227.85C526.429 228.409 525.84 228.847 525.174 229.124C524.507 229.401 523.781 229.51 523.063 229.439ZM508.764 203.503H508.565C508.219 203.592 507.904 203.776 507.655 204.032C507.066 204.639 506.624 205.371 506.36 206.174C506.096 206.977 506.018 207.829 506.132 208.667C506.356 210.476 506.918 212.228 507.787 213.831C510.816 220.154 514.407 224.358 518.511 226.708C519.349 227.215 520.267 227.573 521.226 227.767C523.493 228.181 524.982 227.9 525.644 226.973C526.935 225.169 525.396 220.882 523.526 217.472C520.448 211.848 515.863 207.194 510.286 204.032C509.828 203.736 509.306 203.555 508.764 203.503Z" fill="#231F20"/>
<path d="M507.009 175.017C506.81 175.018 506.617 174.943 506.47 174.808C506.322 174.673 506.231 174.488 506.215 174.289C506.215 173.924 505.305 165.036 506.827 159.971C506.857 159.87 506.906 159.776 506.971 159.694C507.037 159.612 507.118 159.543 507.211 159.493C507.303 159.442 507.404 159.41 507.509 159.398C507.613 159.387 507.719 159.396 507.82 159.425C507.921 159.454 508.016 159.503 508.098 159.569C508.18 159.635 508.248 159.716 508.299 159.809C508.35 159.901 508.382 160.002 508.393 160.107C508.405 160.211 508.396 160.317 508.366 160.418C506.943 165.185 507.787 174.057 507.804 174.14C507.822 174.352 507.756 174.564 507.62 174.728C507.483 174.892 507.288 174.996 507.075 175.017H507.009Z" fill="white"/>
<path d="M410.076 112.633H81.2936C74.3927 112.633 68.7983 118.228 68.7983 125.13V350.747C68.7983 357.649 74.3927 363.244 81.2936 363.244H410.076C416.977 363.244 422.571 357.649 422.571 350.747V125.13C422.571 118.228 416.977 112.633 410.076 112.633Z" fill="white"/>
<path d="M410.076 364.055H81.2936C77.7888 364.033 74.4338 362.631 71.9555 360.153C69.4772 357.674 68.0753 354.319 68.0536 350.814V125.13C68.0536 121.618 69.4485 118.25 71.9315 115.767C74.4145 113.283 77.7821 111.888 81.2936 111.888H410.076C413.587 111.888 416.955 113.283 419.438 115.767C421.921 118.25 423.316 121.618 423.316 125.13V350.764C423.322 352.507 422.985 354.234 422.322 355.846C421.66 357.459 420.686 358.924 419.456 360.159C418.226 361.394 416.764 362.374 415.154 363.042C413.545 363.711 411.819 364.055 410.076 364.055ZM81.2936 113.444C78.1932 113.444 75.2196 114.675 73.0257 116.866C70.8318 119.057 69.5971 122.029 69.5928 125.13V350.764C69.5971 353.865 70.8318 356.837 73.0257 359.028C75.2196 361.219 78.1932 362.449 81.2936 362.449H410.076C413.173 362.445 416.143 361.213 418.333 359.022C420.523 356.831 421.756 353.862 421.76 350.764V125.13C421.756 122.032 420.523 119.062 418.333 116.872C416.143 114.681 413.173 113.449 410.076 113.444H81.2936Z" fill="#231F20"/>
<path d="M409.48 145.042H81.8729V350.069H409.48V145.042Z" fill="#231F20"/>
<path d="M409.48 350.896H81.8729C81.6534 350.896 81.4429 350.809 81.2877 350.654C81.1325 350.499 81.0454 350.288 81.0454 350.069V145.042C81.0454 144.822 81.1325 144.612 81.2877 144.456C81.4429 144.301 81.6534 144.214 81.8729 144.214H409.563C409.782 144.214 409.993 144.301 410.148 144.456C410.303 144.612 410.39 144.822 410.39 145.042V350.069C410.391 350.185 410.367 350.3 410.32 350.406C410.274 350.512 410.205 350.607 410.119 350.685C410.034 350.763 409.932 350.822 409.822 350.859C409.712 350.895 409.596 350.908 409.48 350.896ZM82.75 349.241H408.785V145.869H82.75V349.241Z" fill="#231F20"/>
<path d="M409.48 125.808H81.8729V145.042H409.48V125.808Z" fill="#FFB224"/>
<path d="M409.48 145.869H81.8729C81.6534 145.869 81.4429 145.782 81.2877 145.627C81.1325 145.472 81.0454 145.261 81.0454 145.042V125.808C81.0454 125.589 81.1325 125.378 81.2877 125.223C81.4429 125.068 81.6534 124.981 81.8729 124.981H409.563C409.782 124.981 409.993 125.068 410.148 125.223C410.303 125.378 410.39 125.589 410.39 125.808V145.042C410.391 145.158 410.367 145.272 410.32 145.379C410.274 145.485 410.205 145.58 410.119 145.658C410.034 145.736 409.932 145.795 409.822 145.832C409.712 145.868 409.596 145.881 409.48 145.869ZM82.75 144.214H408.785V126.636H82.75V144.214Z" fill="#FFB224"/>
<path d="M147.56 165.45H119.425C119.319 165.452 119.214 165.433 119.116 165.394C119.017 165.355 118.928 165.297 118.852 165.223C118.777 165.149 118.717 165.061 118.676 164.963C118.635 164.866 118.614 164.761 118.614 164.655C118.614 164.44 118.699 164.234 118.851 164.082C119.003 163.93 119.21 163.844 119.425 163.844H147.56C147.666 163.844 147.77 163.865 147.868 163.906C147.965 163.947 148.053 164.007 148.127 164.083C148.201 164.158 148.26 164.248 148.299 164.346C148.337 164.445 148.356 164.55 148.354 164.655C148.356 164.76 148.337 164.865 148.298 164.962C148.259 165.06 148.201 165.148 148.127 165.222C148.052 165.297 147.964 165.355 147.866 165.394C147.769 165.433 147.665 165.452 147.56 165.45Z" fill="white"/>
<path d="M211.029 165.45H154.759C154.654 165.452 154.55 165.433 154.452 165.394C154.355 165.355 154.267 165.297 154.192 165.222C154.118 165.148 154.06 165.06 154.021 164.962C153.981 164.865 153.962 164.76 153.965 164.655C153.962 164.55 153.981 164.445 154.02 164.346C154.059 164.248 154.117 164.158 154.191 164.083C154.265 164.007 154.354 163.947 154.451 163.906C154.549 163.865 154.653 163.844 154.759 163.844H211.029C211.244 163.844 211.45 163.93 211.602 164.082C211.755 164.234 211.84 164.44 211.84 164.655C211.84 164.761 211.819 164.866 211.778 164.963C211.737 165.061 211.677 165.149 211.601 165.223C211.526 165.297 211.436 165.355 211.338 165.394C211.24 165.433 211.135 165.452 211.029 165.45Z" fill="#FFB224"/>
<path d="M230.475 177.235H174.205C173.986 177.235 173.775 177.148 173.62 176.992C173.465 176.837 173.378 176.627 173.378 176.407C173.378 176.188 173.465 175.977 173.62 175.822C173.775 175.667 173.986 175.58 174.205 175.58H230.475C230.695 175.58 230.905 175.667 231.06 175.822C231.216 175.977 231.303 176.188 231.303 176.407C231.303 176.627 231.216 176.837 231.06 176.992C230.905 177.148 230.695 177.235 230.475 177.235Z" fill="#FFB224"/>
<path d="M154.163 177.235H126.028C125.809 177.235 125.598 177.148 125.443 176.992C125.288 176.837 125.201 176.627 125.201 176.407C125.201 176.188 125.288 175.977 125.443 175.822C125.598 175.667 125.809 175.58 126.028 175.58H154.163C154.383 175.58 154.593 175.667 154.748 175.822C154.904 175.977 154.991 176.188 154.991 176.407C154.991 176.627 154.904 176.837 154.748 176.992C154.593 177.148 154.383 177.235 154.163 177.235Z" fill="white"/>
<path d="M160.783 189.003H132.648C132.433 189.003 132.227 188.918 132.075 188.766C131.923 188.614 131.837 188.407 131.837 188.192C131.837 188.086 131.858 187.982 131.899 187.884C131.94 187.787 132 187.698 132.076 187.624C132.151 187.55 132.241 187.492 132.339 187.453C132.437 187.414 132.543 187.395 132.648 187.398H160.783C160.888 187.395 160.993 187.414 161.09 187.454C161.187 187.493 161.276 187.551 161.35 187.625C161.424 187.7 161.483 187.788 161.522 187.885C161.561 187.983 161.58 188.087 161.578 188.192C161.58 188.298 161.561 188.403 161.522 188.501C161.483 188.6 161.425 188.689 161.351 188.765C161.277 188.84 161.189 188.9 161.091 188.941C160.994 188.982 160.889 189.003 160.783 189.003Z" fill="white"/>
<path d="M240.521 189.003H170.167C170.061 189.003 169.957 188.982 169.859 188.941C169.762 188.9 169.673 188.84 169.599 188.765C169.525 188.689 169.467 188.6 169.428 188.501C169.389 188.403 169.371 188.298 169.373 188.192C169.37 188.087 169.389 187.983 169.429 187.885C169.468 187.788 169.526 187.7 169.6 187.625C169.675 187.551 169.763 187.493 169.86 187.454C169.958 187.414 170.062 187.395 170.167 187.398H240.521C240.627 187.395 240.732 187.414 240.83 187.453C240.929 187.492 241.018 187.55 241.094 187.624C241.169 187.698 241.229 187.787 241.27 187.884C241.311 187.982 241.332 188.086 241.332 188.192C241.332 188.407 241.247 188.614 241.095 188.766C240.943 188.918 240.736 189.003 240.521 189.003Z" fill="#FFB224"/>
<path d="M167.387 200.771H139.252C139.04 200.767 138.837 200.68 138.689 200.528C138.54 200.377 138.457 200.173 138.457 199.96C138.457 199.75 138.541 199.548 138.69 199.399C138.839 199.25 139.041 199.166 139.252 199.166H167.387C167.492 199.164 167.597 199.183 167.696 199.222C167.794 199.261 167.884 199.319 167.959 199.393C168.035 199.467 168.095 199.555 168.136 199.653C168.177 199.75 168.198 199.855 168.198 199.96C168.198 200.176 168.112 200.382 167.96 200.534C167.808 200.686 167.602 200.771 167.387 200.771Z" fill="white"/>
<path d="M255.069 200.771H171.425C171.21 200.771 171.004 200.686 170.851 200.534C170.699 200.382 170.614 200.176 170.614 199.96C170.614 199.855 170.635 199.75 170.676 199.653C170.717 199.555 170.777 199.467 170.852 199.393C170.928 199.319 171.018 199.261 171.116 199.222C171.214 199.183 171.319 199.164 171.425 199.166H255.069C255.174 199.164 255.279 199.183 255.378 199.222C255.476 199.261 255.566 199.319 255.641 199.393C255.717 199.467 255.777 199.555 255.818 199.653C255.858 199.75 255.88 199.855 255.88 199.96C255.88 200.176 255.794 200.382 255.642 200.534C255.49 200.686 255.284 200.771 255.069 200.771Z" fill="#FFB224"/>
<path d="M159.923 212.54H131.788C131.568 212.54 131.358 212.453 131.203 212.297C131.047 212.142 130.96 211.932 130.96 211.712C130.96 211.493 131.047 211.282 131.203 211.127C131.358 210.972 131.568 210.885 131.788 210.885H159.923C160.142 210.885 160.353 210.972 160.508 211.127C160.663 211.282 160.75 211.493 160.75 211.712C160.75 211.932 160.663 212.142 160.508 212.297C160.353 212.453 160.142 212.54 159.923 212.54Z" fill="white"/>
<path d="M211.029 212.54H165.665C165.446 212.54 165.236 212.453 165.08 212.297C164.925 212.142 164.838 211.932 164.838 211.712C164.838 211.493 164.925 211.282 165.08 211.127C165.236 210.972 165.446 210.885 165.665 210.885H211.029C211.249 210.885 211.459 210.972 211.614 211.127C211.769 211.282 211.857 211.493 211.857 211.712C211.857 211.932 211.769 212.142 211.614 212.297C211.459 212.453 211.249 212.54 211.029 212.54Z" fill="#FFB224"/>
<path d="M273.72 212.54H228.39C228.171 212.54 227.96 212.453 227.805 212.297C227.65 212.142 227.562 211.932 227.562 211.712C227.562 211.493 227.65 211.282 227.805 211.127C227.96 210.972 228.171 210.885 228.39 210.885H273.754C273.973 210.885 274.183 210.972 274.339 211.127C274.494 211.282 274.581 211.493 274.581 211.712C274.581 211.932 274.494 212.142 274.339 212.297C274.183 212.453 273.973 212.54 273.754 212.54H273.72Z" fill="#FFB224"/>
<path d="M159.923 224.308H131.788C131.568 224.308 131.358 224.221 131.203 224.066C131.047 223.911 130.96 223.7 130.96 223.481C130.96 223.261 131.047 223.051 131.203 222.895C131.358 222.74 131.568 222.653 131.788 222.653H159.923C160.142 222.653 160.353 222.74 160.508 222.895C160.663 223.051 160.75 223.261 160.75 223.481C160.75 223.7 160.663 223.911 160.508 224.066C160.353 224.221 160.142 224.308 159.923 224.308Z" fill="white"/>
<path d="M211.029 224.308H171.425C171.205 224.308 170.995 224.221 170.84 224.066C170.685 223.911 170.597 223.7 170.597 223.481C170.597 223.261 170.685 223.051 170.84 222.895C170.995 222.74 171.205 222.653 171.425 222.653H211.029C211.249 222.653 211.459 222.74 211.614 222.895C211.769 223.051 211.857 223.261 211.857 223.481C211.857 223.7 211.769 223.911 211.614 224.066C211.459 224.221 211.249 224.308 211.029 224.308Z" fill="#FFB224"/>
<path d="M233.901 224.308H217.715C217.496 224.308 217.285 224.221 217.13 224.066C216.975 223.911 216.888 223.7 216.888 223.481C216.888 223.261 216.975 223.051 217.13 222.895C217.285 222.74 217.496 222.653 217.715 222.653H233.901C234.121 222.653 234.331 222.74 234.486 222.895C234.641 223.051 234.729 223.261 234.729 223.481C234.729 223.7 234.641 223.911 234.486 224.066C234.331 224.221 234.121 224.308 233.901 224.308Z" fill="#FFB224"/>
<path d="M159.923 236.076H131.788C131.682 236.079 131.577 236.06 131.479 236.021C131.38 235.982 131.291 235.924 131.215 235.85C131.14 235.776 131.08 235.687 131.039 235.59C130.998 235.492 130.977 235.388 130.977 235.282C130.977 235.067 131.062 234.861 131.214 234.709C131.366 234.556 131.573 234.471 131.788 234.471H159.923C160.028 234.471 160.133 234.492 160.231 234.533C160.328 234.574 160.416 234.634 160.49 234.709C160.564 234.785 160.622 234.875 160.661 234.973C160.7 235.071 160.719 235.176 160.717 235.282C160.719 235.387 160.7 235.491 160.661 235.589C160.622 235.686 160.564 235.775 160.489 235.849C160.415 235.923 160.327 235.981 160.229 236.021C160.132 236.06 160.028 236.079 159.923 236.076Z" fill="white"/>
<path d="M225.246 236.076H167.32C167.11 236.076 166.908 235.993 166.759 235.844C166.61 235.695 166.526 235.493 166.526 235.282C166.526 235.07 166.609 234.866 166.758 234.714C166.906 234.563 167.108 234.475 167.32 234.471H225.246C225.461 234.471 225.667 234.556 225.819 234.709C225.971 234.861 226.056 235.067 226.056 235.282C226.056 235.388 226.035 235.492 225.994 235.59C225.954 235.687 225.893 235.776 225.818 235.85C225.742 235.924 225.653 235.982 225.555 236.021C225.456 236.06 225.351 236.079 225.246 236.076Z" fill="#FFB224"/>
<path d="M260.232 236.076H232.097C231.992 236.079 231.886 236.06 231.788 236.021C231.69 235.982 231.6 235.924 231.525 235.85C231.449 235.776 231.389 235.687 231.348 235.59C231.307 235.492 231.286 235.388 231.286 235.282C231.286 235.067 231.372 234.861 231.524 234.709C231.676 234.556 231.882 234.471 232.097 234.471H260.232C260.444 234.475 260.646 234.563 260.795 234.714C260.943 234.866 261.027 235.07 261.027 235.282C261.027 235.493 260.943 235.695 260.794 235.844C260.645 235.993 260.443 236.076 260.232 236.076Z" fill="#FFB224"/>
<path d="M140.079 247.845H125.184C124.965 247.845 124.754 247.758 124.599 247.602C124.444 247.447 124.357 247.237 124.357 247.017C124.357 246.798 124.444 246.587 124.599 246.432C124.754 246.277 124.965 246.19 125.184 246.19H140.079C140.299 246.19 140.509 246.277 140.664 246.432C140.82 246.587 140.907 246.798 140.907 247.017C140.907 247.237 140.82 247.447 140.664 247.602C140.509 247.758 140.299 247.845 140.079 247.845Z" fill="white"/>
<path d="M217.715 247.845H152.442C152.223 247.845 152.012 247.758 151.857 247.602C151.702 247.447 151.615 247.237 151.615 247.017C151.615 246.798 151.702 246.587 151.857 246.432C152.012 246.277 152.223 246.19 152.442 246.19H217.715C217.935 246.19 218.145 246.277 218.3 246.432C218.456 246.587 218.543 246.798 218.543 247.017C218.543 247.237 218.456 247.447 218.3 247.602C218.145 247.758 217.935 247.845 217.715 247.845Z" fill="#FFB224"/>
<path d="M153.303 259.63H125.168C124.948 259.63 124.738 259.542 124.583 259.387C124.427 259.232 124.34 259.022 124.34 258.802C124.34 258.583 124.427 258.372 124.583 258.217C124.738 258.062 124.948 257.974 125.168 257.974H153.303C153.522 257.974 153.733 258.062 153.888 258.217C154.043 258.372 154.13 258.583 154.13 258.802C154.13 259.022 154.043 259.232 153.888 259.387C153.733 259.542 153.522 259.63 153.303 259.63Z" fill="white"/>
<path d="M185.509 271.398H129.239C129.133 271.398 129.029 271.377 128.931 271.336C128.834 271.295 128.745 271.235 128.671 271.16C128.597 271.084 128.539 270.994 128.5 270.896C128.461 270.798 128.442 270.693 128.445 270.587C128.442 270.482 128.461 270.378 128.5 270.28C128.54 270.183 128.598 270.094 128.672 270.02C128.746 269.946 128.835 269.888 128.932 269.848C129.03 269.809 129.134 269.79 129.239 269.793H185.509C185.615 269.79 185.72 269.809 185.818 269.848C185.916 269.887 186.006 269.945 186.081 270.019C186.157 270.093 186.217 270.182 186.258 270.279C186.299 270.377 186.32 270.481 186.32 270.587C186.32 270.802 186.234 271.008 186.082 271.161C185.93 271.313 185.724 271.398 185.509 271.398Z" fill="white"/>
<path d="M233.901 271.398H194.827C194.721 271.398 194.616 271.377 194.519 271.336C194.421 271.295 194.333 271.235 194.259 271.16C194.185 271.084 194.127 270.994 194.088 270.896C194.049 270.798 194.03 270.693 194.032 270.587C194.03 270.482 194.049 270.378 194.088 270.28C194.127 270.183 194.186 270.094 194.26 270.02C194.334 269.946 194.423 269.888 194.52 269.848C194.617 269.809 194.722 269.79 194.827 269.793H233.901C234.007 269.79 234.112 269.809 234.21 269.848C234.309 269.887 234.398 269.945 234.474 270.019C234.549 270.093 234.609 270.182 234.65 270.279C234.691 270.377 234.712 270.481 234.712 270.587C234.712 270.802 234.627 271.008 234.475 271.161C234.323 271.313 234.116 271.398 233.901 271.398Z" fill="#FFB224"/>
<path d="M287.871 271.398H239.495C239.389 271.398 239.285 271.377 239.187 271.336C239.09 271.295 239.001 271.235 238.927 271.16C238.853 271.084 238.795 270.994 238.756 270.896C238.717 270.798 238.698 270.693 238.701 270.587C238.698 270.482 238.717 270.378 238.757 270.28C238.796 270.183 238.854 270.094 238.928 270.02C239.003 269.946 239.091 269.888 239.188 269.848C239.286 269.809 239.39 269.79 239.495 269.793H287.871C288.081 269.793 288.283 269.876 288.432 270.025C288.581 270.174 288.665 270.376 288.665 270.587C288.665 270.799 288.582 271.003 288.433 271.155C288.285 271.306 288.083 271.394 287.871 271.398Z" fill="#FFB224"/>
<path d="M213.677 283.166H131.755C131.539 283.166 131.333 283.081 131.181 282.929C131.029 282.777 130.944 282.57 130.944 282.355C130.944 282.25 130.965 282.145 131.006 282.047C131.047 281.95 131.107 281.862 131.182 281.788C131.258 281.714 131.347 281.655 131.445 281.617C131.544 281.578 131.649 281.559 131.755 281.561H213.677C213.783 281.559 213.888 281.578 213.986 281.617C214.084 281.655 214.174 281.714 214.249 281.788C214.325 281.862 214.385 281.95 214.426 282.047C214.467 282.145 214.488 282.25 214.488 282.355C214.488 282.57 214.403 282.777 214.25 282.929C214.098 283.081 213.892 283.166 213.677 283.166Z" fill="white"/>
<path d="M256.128 283.166H219.271C219.056 283.166 218.85 283.081 218.698 282.929C218.545 282.777 218.46 282.57 218.46 282.355C218.46 282.25 218.481 282.145 218.522 282.047C218.563 281.95 218.623 281.862 218.698 281.788C218.774 281.714 218.864 281.655 218.962 281.617C219.06 281.578 219.165 281.559 219.271 281.561H256.128C256.233 281.559 256.337 281.578 256.434 281.617C256.532 281.656 256.62 281.714 256.695 281.789C256.769 281.863 256.827 281.951 256.866 282.049C256.905 282.146 256.924 282.25 256.922 282.355C256.924 282.461 256.905 282.566 256.867 282.664C256.828 282.763 256.769 282.852 256.695 282.928C256.621 283.003 256.533 283.063 256.436 283.104C256.338 283.145 256.233 283.166 256.128 283.166Z" fill="#FFB224"/>
<path d="M371.961 283.166H262.367C262.155 283.162 261.953 283.075 261.804 282.923C261.656 282.771 261.573 282.568 261.573 282.355C261.573 282.145 261.656 281.943 261.805 281.794C261.954 281.645 262.156 281.561 262.367 281.561H371.961C372.067 281.559 372.172 281.578 372.27 281.617C372.369 281.655 372.458 281.714 372.534 281.788C372.609 281.862 372.669 281.95 372.71 282.047C372.751 282.145 372.772 282.25 372.772 282.355C372.772 282.57 372.687 282.777 372.535 282.929C372.383 283.081 372.176 283.166 371.961 283.166Z" fill="#FFB224"/>
<path d="M170.167 294.935H131.424C131.204 294.935 130.994 294.848 130.838 294.692C130.683 294.537 130.596 294.327 130.596 294.107C130.596 293.888 130.683 293.677 130.838 293.522C130.994 293.367 131.204 293.28 131.424 293.28H170.167C170.387 293.28 170.597 293.367 170.752 293.522C170.907 293.677 170.995 293.888 170.995 294.107C170.995 294.327 170.907 294.537 170.752 294.692C170.597 294.848 170.387 294.935 170.167 294.935Z" fill="white"/>
<path d="M206.412 294.935H177.879C177.66 294.935 177.449 294.848 177.294 294.692C177.139 294.537 177.052 294.327 177.052 294.107C177.052 293.888 177.139 293.677 177.294 293.522C177.449 293.367 177.66 293.28 177.879 293.28H206.412C206.631 293.28 206.842 293.367 206.997 293.522C207.152 293.677 207.239 293.888 207.239 294.107C207.239 294.327 207.152 294.537 206.997 294.692C206.842 294.848 206.631 294.935 206.412 294.935Z" fill="#FFB224"/>
<path d="M242.623 294.935H214.091C213.871 294.935 213.661 294.848 213.506 294.692C213.35 294.537 213.263 294.327 213.263 294.107C213.263 293.888 213.35 293.677 213.506 293.522C213.661 293.367 213.871 293.28 214.091 293.28H242.623C242.842 293.28 243.053 293.367 243.208 293.522C243.363 293.677 243.451 293.888 243.451 294.107C243.451 294.327 243.363 294.537 243.208 294.692C243.053 294.848 242.842 294.935 242.623 294.935Z" fill="#FFB224"/>
<path d="M199.924 306.703H131.424C131.318 306.705 131.213 306.686 131.114 306.647C131.016 306.608 130.927 306.55 130.851 306.476C130.776 306.402 130.716 306.314 130.675 306.216C130.634 306.119 130.613 306.014 130.613 305.909C130.613 305.693 130.698 305.487 130.85 305.335C131.002 305.183 131.208 305.097 131.424 305.097H199.924C200.139 305.097 200.345 305.183 200.497 305.335C200.65 305.487 200.735 305.693 200.735 305.909C200.735 306.014 200.714 306.119 200.673 306.216C200.632 306.314 200.572 306.402 200.496 306.476C200.421 306.55 200.331 306.608 200.233 306.647C200.135 306.686 200.03 306.705 199.924 306.703Z" fill="white"/>
<path d="M242.623 306.703H208.365C208.26 306.705 208.155 306.686 208.058 306.647C207.96 306.608 207.872 306.55 207.798 306.475C207.724 306.401 207.665 306.313 207.626 306.215C207.587 306.118 207.568 306.013 207.57 305.909C207.568 305.803 207.587 305.698 207.626 305.599C207.665 305.501 207.723 305.412 207.797 305.336C207.871 305.26 207.959 305.2 208.057 305.16C208.154 305.119 208.259 305.097 208.365 305.097H242.623C242.729 305.097 242.833 305.119 242.931 305.16C243.028 305.2 243.117 305.26 243.191 305.336C243.265 305.412 243.323 305.501 243.362 305.599C243.401 305.698 243.42 305.803 243.417 305.909C243.42 306.013 243.401 306.118 243.362 306.215C243.322 306.313 243.264 306.401 243.19 306.475C243.116 306.55 243.027 306.608 242.93 306.647C242.832 306.686 242.728 306.705 242.623 306.703Z" fill="#FFB224"/>
<path d="M303.196 306.703H251.03C250.925 306.705 250.821 306.686 250.724 306.647C250.626 306.608 250.538 306.55 250.464 306.475C250.389 306.401 250.331 306.313 250.292 306.215C250.253 306.118 250.234 306.013 250.236 305.909C250.234 305.803 250.253 305.698 250.292 305.599C250.331 305.501 250.389 305.412 250.463 305.336C250.537 305.26 250.625 305.2 250.723 305.16C250.82 305.119 250.925 305.097 251.03 305.097H303.196C303.302 305.097 303.408 305.118 303.506 305.159C303.605 305.2 303.694 305.26 303.769 305.335C303.845 305.41 303.904 305.5 303.945 305.598C303.986 305.697 304.007 305.802 304.007 305.909C304.007 306.014 303.986 306.119 303.945 306.216C303.904 306.314 303.844 306.402 303.768 306.476C303.693 306.55 303.603 306.608 303.505 306.647C303.407 306.686 303.302 306.705 303.196 306.703Z" fill="#FFB224"/>
<path d="M360.79 306.703H308.691C308.585 306.705 308.48 306.686 308.381 306.647C308.283 306.608 308.194 306.55 308.118 306.476C308.043 306.402 307.983 306.314 307.942 306.216C307.901 306.119 307.88 306.014 307.88 305.909C307.88 305.693 307.965 305.487 308.117 305.335C308.269 305.183 308.476 305.097 308.691 305.097H360.79C361.005 305.097 361.211 305.183 361.363 305.335C361.516 305.487 361.601 305.693 361.601 305.909C361.601 306.014 361.58 306.119 361.539 306.216C361.498 306.314 361.438 306.402 361.362 306.476C361.287 306.55 361.197 306.608 361.099 306.647C361.001 306.686 360.896 306.705 360.79 306.703Z" fill="#FFB224"/>
<path d="M189.613 318.471H148.751C148.646 318.474 148.541 318.455 148.442 318.416C148.344 318.377 148.254 318.319 148.179 318.245C148.103 318.171 148.043 318.082 148.002 317.985C147.962 317.887 147.94 317.783 147.94 317.677C147.94 317.57 147.961 317.465 148.002 317.367C148.043 317.268 148.103 317.179 148.178 317.103C148.253 317.028 148.343 316.968 148.441 316.928C148.539 316.887 148.645 316.866 148.751 316.866H189.613C189.719 316.866 189.824 316.887 189.921 316.928C190.019 316.969 190.107 317.029 190.181 317.104C190.255 317.18 190.313 317.269 190.352 317.368C190.391 317.466 190.41 317.571 190.408 317.677C190.41 317.782 190.391 317.886 190.352 317.984C190.313 318.081 190.254 318.169 190.18 318.244C190.106 318.318 190.017 318.376 189.92 318.416C189.823 318.455 189.718 318.474 189.613 318.471Z" fill="white"/>
<path d="M238.138 318.471H197.276C197.171 318.474 197.067 318.455 196.969 318.416C196.872 318.376 196.783 318.318 196.709 318.244C196.635 318.169 196.577 318.081 196.537 317.984C196.498 317.886 196.479 317.782 196.482 317.677C196.479 317.571 196.498 317.466 196.537 317.368C196.576 317.269 196.634 317.18 196.708 317.104C196.782 317.029 196.871 316.969 196.968 316.928C197.066 316.887 197.17 316.866 197.276 316.866H238.138C238.244 316.866 238.35 316.887 238.448 316.928C238.547 316.968 238.636 317.028 238.711 317.103C238.787 317.179 238.846 317.268 238.887 317.367C238.928 317.465 238.949 317.57 238.949 317.677C238.949 317.783 238.928 317.887 238.887 317.985C238.846 318.082 238.786 318.171 238.71 318.245C238.635 318.319 238.545 318.377 238.447 318.416C238.349 318.455 238.244 318.474 238.138 318.471Z" fill="#FFB224"/>
<path d="M287.01 318.471H246.148C246.042 318.474 245.937 318.455 245.839 318.416C245.741 318.377 245.651 318.319 245.576 318.245C245.5 318.171 245.44 318.082 245.399 317.985C245.358 317.887 245.337 317.783 245.337 317.677C245.337 317.57 245.358 317.465 245.399 317.367C245.44 317.268 245.499 317.179 245.575 317.103C245.65 317.028 245.739 316.968 245.838 316.928C245.936 316.887 246.042 316.866 246.148 316.866H287.01C287.116 316.866 287.22 316.887 287.318 316.928C287.415 316.969 287.504 317.029 287.578 317.104C287.652 317.18 287.71 317.269 287.749 317.368C287.788 317.466 287.807 317.571 287.804 317.677C287.807 317.782 287.788 317.886 287.749 317.984C287.709 318.081 287.651 318.169 287.577 318.244C287.503 318.318 287.414 318.376 287.317 318.416C287.219 318.455 287.115 318.474 287.01 318.471Z" fill="#FFB224"/>
<path d="M337.62 319.795H296.742C296.522 319.795 296.312 319.708 296.156 319.553C296.001 319.398 295.914 319.187 295.914 318.968C295.914 318.748 296.001 318.538 296.156 318.383C296.312 318.227 296.522 318.14 296.742 318.14H337.62C337.839 318.14 338.05 318.227 338.205 318.383C338.36 318.538 338.448 318.748 338.448 318.968C338.448 319.187 338.36 319.398 338.205 319.553C338.05 319.708 337.839 319.795 337.62 319.795Z" fill="#FFB224"/>
<path d="M182.993 330.24H154.858C154.753 330.242 154.649 330.223 154.552 330.184C154.454 330.145 154.366 330.086 154.292 330.012C154.217 329.938 154.159 329.849 154.12 329.752C154.081 329.654 154.062 329.55 154.064 329.445C154.062 329.339 154.081 329.234 154.12 329.136C154.159 329.038 154.217 328.948 154.291 328.873C154.365 328.797 154.453 328.737 154.55 328.696C154.648 328.655 154.753 328.634 154.858 328.634H182.993C183.208 328.634 183.415 328.72 183.567 328.872C183.719 329.024 183.804 329.23 183.804 329.445C183.804 329.551 183.783 329.656 183.742 329.753C183.701 329.851 183.641 329.939 183.566 330.013C183.49 330.087 183.401 330.145 183.302 330.184C183.204 330.223 183.099 330.242 182.993 330.24Z" fill="white"/>
<path d="M217.781 330.24H189.646C189.541 330.242 189.436 330.223 189.337 330.184C189.239 330.145 189.15 330.087 189.074 330.013C188.998 329.939 188.938 329.851 188.898 329.753C188.857 329.656 188.835 329.551 188.836 329.445C188.836 329.23 188.921 329.024 189.073 328.872C189.225 328.72 189.431 328.634 189.646 328.634H217.781C217.887 328.634 217.992 328.655 218.089 328.696C218.187 328.737 218.275 328.797 218.349 328.873C218.423 328.948 218.481 329.038 218.52 329.136C218.559 329.234 218.578 329.339 218.576 329.445C218.578 329.55 218.559 329.654 218.52 329.752C218.481 329.849 218.422 329.938 218.348 330.012C218.274 330.086 218.186 330.145 218.088 330.184C217.991 330.223 217.886 330.242 217.781 330.24Z" fill="#FFB224"/>
<path d="M282.823 331.431L224.666 330.24C224.561 330.24 224.456 330.219 224.358 330.178C224.261 330.137 224.173 330.077 224.099 330.001C224.025 329.926 223.966 329.836 223.928 329.738C223.889 329.639 223.87 329.534 223.872 329.429C223.869 329.321 223.889 329.214 223.93 329.114C223.972 329.014 224.033 328.924 224.111 328.849C224.189 328.775 224.281 328.717 224.382 328.68C224.484 328.643 224.592 328.627 224.699 328.634L282.856 329.826C283.076 329.826 283.286 329.913 283.441 330.068C283.596 330.224 283.684 330.434 283.684 330.653C283.684 330.873 283.596 331.083 283.441 331.239C283.286 331.394 283.076 331.481 282.856 331.481L282.823 331.431Z" fill="#FFB224"/>
<path d="M304.52 200.771H266.455C266.349 200.772 266.245 200.75 266.147 200.709C266.05 200.669 265.961 200.609 265.887 200.533C265.813 200.457 265.755 200.368 265.716 200.27C265.677 200.171 265.658 200.066 265.661 199.96C265.658 199.855 265.677 199.751 265.717 199.654C265.756 199.556 265.814 199.468 265.888 199.394C265.962 199.319 266.051 199.261 266.148 199.222C266.246 199.183 266.35 199.164 266.455 199.166H304.52C304.626 199.164 304.731 199.183 304.829 199.222C304.927 199.261 305.017 199.319 305.092 199.393C305.168 199.467 305.228 199.555 305.269 199.653C305.31 199.75 305.331 199.855 305.331 199.96C305.331 200.176 305.246 200.382 305.093 200.534C304.941 200.686 304.735 200.771 304.52 200.771Z" fill="#FFB224"/>
<path d="M332.655 200.887C325.208 200.887 319.68 200.887 319.415 200.722C319.314 200.694 319.219 200.646 319.137 200.581C319.054 200.516 318.985 200.436 318.934 200.344C318.83 200.16 318.803 199.941 318.861 199.737C318.918 199.533 319.053 199.36 319.238 199.256C319.423 199.152 319.641 199.125 319.845 199.183C321.302 199.365 346.425 199.265 363.041 199.183C363.147 199.18 363.252 199.199 363.35 199.238C363.448 199.277 363.538 199.335 363.613 199.409C363.689 199.483 363.749 199.572 363.79 199.669C363.831 199.767 363.852 199.871 363.852 199.977C363.852 200.192 363.766 200.398 363.614 200.551C363.462 200.703 363.256 200.788 363.041 200.788C354.17 200.821 341.923 200.887 332.655 200.887Z" fill="#FFB224"/>
<path d="M298.446 177.235H243.169C242.95 177.235 242.739 177.148 242.584 176.992C242.429 176.837 242.342 176.627 242.342 176.407C242.342 176.188 242.429 175.977 242.584 175.822C242.739 175.667 242.95 175.58 243.169 175.58H298.446C298.666 175.58 298.876 175.667 299.031 175.822C299.186 175.977 299.274 176.188 299.274 176.407C299.274 176.627 299.186 176.837 299.031 176.992C298.876 177.148 298.666 177.235 298.446 177.235Z" fill="#FFB224"/>
<path d="M364.563 177.235H309.485C309.266 177.235 309.055 177.148 308.9 176.992C308.745 176.837 308.658 176.627 308.658 176.407C308.658 176.188 308.745 175.977 308.9 175.822C309.055 175.667 309.266 175.58 309.485 175.58H364.497C364.717 175.58 364.927 175.667 365.082 175.822C365.238 175.977 365.325 176.188 365.325 176.407C365.325 176.627 365.238 176.837 365.082 176.992C364.927 177.148 364.717 177.235 364.497 177.235H364.563Z" fill="#FFB224"/>
<path d="M246.595 165.516C236.384 165.516 228.605 165.516 228.291 165.516C228.081 165.48 227.894 165.362 227.77 165.189C227.646 165.015 227.595 164.8 227.629 164.589C227.661 164.384 227.773 164.2 227.94 164.076C228.107 163.952 228.316 163.899 228.522 163.927C229.929 164.027 270.741 163.927 292.157 163.927C292.372 163.927 292.578 164.013 292.731 164.165C292.883 164.317 292.968 164.523 292.968 164.738C292.968 164.844 292.947 164.949 292.906 165.046C292.865 165.144 292.805 165.232 292.73 165.306C292.654 165.38 292.565 165.438 292.466 165.477C292.368 165.516 292.263 165.535 292.157 165.533C283.171 165.483 262.053 165.516 246.595 165.516Z" fill="#FFB224"/>
<path d="M307.069 165.5C306.921 165.496 306.777 165.451 306.654 165.369C306.531 165.287 306.433 165.172 306.374 165.036C306.293 164.831 306.292 164.603 306.372 164.398C306.452 164.192 306.606 164.024 306.804 163.927C307.449 163.613 320.309 163.58 345.001 163.927C345.212 163.936 345.412 164.024 345.559 164.175C345.707 164.326 345.792 164.527 345.796 164.738C345.796 164.844 345.775 164.949 345.734 165.046C345.693 165.144 345.633 165.232 345.557 165.306C345.482 165.38 345.392 165.438 345.294 165.477C345.196 165.516 345.09 165.535 344.985 165.533C330.603 165.384 308.74 165.251 307.383 165.533C307.277 165.552 307.168 165.54 307.069 165.5Z" fill="white"/>
<path d="M253.745 247.845H225.246C225.026 247.845 224.816 247.758 224.66 247.602C224.505 247.447 224.418 247.237 224.418 247.017C224.418 246.798 224.505 246.587 224.66 246.432C224.816 246.277 225.026 246.19 225.246 246.19H253.745C253.964 246.19 254.175 246.277 254.33 246.432C254.485 246.587 254.572 246.798 254.572 247.017C254.572 247.237 254.485 247.447 254.33 247.602C254.175 247.758 253.964 247.845 253.745 247.845Z" fill="#FFB224"/>
<path d="M188.356 259.63H167.387C167.167 259.63 166.957 259.542 166.802 259.387C166.646 259.232 166.559 259.022 166.559 258.802C166.559 258.583 166.646 258.372 166.802 258.217C166.957 258.062 167.167 257.974 167.387 257.974H188.356C188.575 257.974 188.785 258.062 188.941 258.217C189.096 258.372 189.183 258.583 189.183 258.802C189.183 259.022 189.096 259.232 188.941 259.387C188.785 259.542 188.575 259.63 188.356 259.63Z" fill="#FFB224"/>
<path d="M246.148 259.63H196.316C196.097 259.63 195.886 259.542 195.731 259.387C195.576 259.232 195.489 259.022 195.489 258.802C195.489 258.583 195.576 258.372 195.731 258.217C195.886 258.062 196.097 257.974 196.316 257.974H246.148C246.368 257.974 246.578 258.062 246.733 258.217C246.888 258.372 246.976 258.583 246.976 258.802C246.976 259.022 246.888 259.232 246.733 259.387C246.578 259.542 246.368 259.63 246.148 259.63Z" fill="white"/>
<path d="M352.664 259.63H256.128C255.908 259.63 255.698 259.542 255.543 259.387C255.388 259.232 255.3 259.022 255.3 258.802C255.3 258.583 255.388 258.372 255.543 258.217C255.698 258.062 255.908 257.974 256.128 257.974H352.664C352.883 257.974 353.094 258.062 353.249 258.217C353.404 258.372 353.491 258.583 353.491 258.802C353.491 259.022 353.404 259.232 353.249 259.387C353.094 259.542 352.883 259.63 352.664 259.63Z" fill="#FFB224"/>
<path d="M94.335 138.239C95.8889 138.239 97.1485 136.979 97.1485 135.425C97.1485 133.871 95.8889 132.611 94.335 132.611C92.7811 132.611 91.5215 133.871 91.5215 135.425C91.5215 136.979 92.7811 138.239 94.335 138.239Z" fill="#231F20"/>
<path d="M104.199 138.239C105.753 138.239 107.012 136.979 107.012 135.425C107.012 133.871 105.753 132.611 104.199 132.611C102.645 132.611 101.385 133.871 101.385 135.425C101.385 136.979 102.645 138.239 104.199 138.239Z" fill="white"/>
<path d="M114.063 138.239C115.616 138.239 116.876 136.979 116.876 135.425C116.876 133.871 115.616 132.611 114.063 132.611C112.509 132.611 111.249 133.871 111.249 135.425C111.249 136.979 112.509 138.239 114.063 138.239Z" fill="white"/>
<path d="M298.314 399.525H193.039L204.939 363.244H286.414L298.314 399.525Z" fill="white"/>
<path d="M298.314 400.353H193.039C192.908 400.358 192.777 400.33 192.658 400.273C192.54 400.215 192.437 400.13 192.359 400.024C192.281 399.918 192.229 399.795 192.209 399.665C192.19 399.535 192.202 399.402 192.245 399.277L204.144 362.996C204.197 362.827 204.303 362.679 204.446 362.575C204.589 362.471 204.762 362.415 204.939 362.416H286.414C286.591 362.415 286.764 362.471 286.907 362.575C287.05 362.679 287.156 362.827 287.209 362.996L299.108 399.277C299.151 399.402 299.163 399.535 299.144 399.665C299.124 399.795 299.072 399.918 298.994 400.024C298.916 400.13 298.813 400.215 298.695 400.273C298.576 400.33 298.445 400.358 298.314 400.353ZM194.181 398.698H297.172L285.818 364.071H205.534L194.181 398.698Z" fill="#231F20"/>
<path d="M307.003 399.526H184.35C181.526 399.526 179.237 401.812 179.237 404.632C179.237 407.452 181.526 409.738 184.35 409.738H307.003C309.827 409.738 312.116 407.452 312.116 404.632C312.116 401.812 309.827 399.526 307.003 399.526Z" fill="white"/>
<path d="M307.019 410.582H184.35C182.775 410.582 181.263 409.956 180.149 408.842C179.035 407.727 178.409 406.216 178.409 404.64C178.409 403.064 179.035 401.553 180.149 400.438C181.263 399.324 182.775 398.698 184.35 398.698H307.019C308.595 398.698 310.106 399.324 311.22 400.438C312.335 401.553 312.961 403.064 312.961 404.64C312.961 406.216 312.335 407.727 311.22 408.842C310.106 409.956 308.595 410.582 307.019 410.582ZM184.35 400.353C183.214 400.353 182.123 400.805 181.319 401.609C180.516 402.413 180.064 403.503 180.064 404.64C180.064 405.777 180.516 406.867 181.319 407.671C182.123 408.475 183.214 408.927 184.35 408.927H307.019C308.156 408.927 309.246 408.475 310.05 407.671C310.854 406.867 311.306 405.777 311.306 404.64C311.306 403.503 310.854 402.413 310.05 401.609C309.246 400.805 308.156 400.353 307.019 400.353H184.35Z" fill="#231F20"/>
<path d="M196.2 389.909C197.855 389.015 289.046 372.364 289.046 372.364L286.05 363.244H204.575L196.2 389.909Z" fill="#231F20"/>
<path d="M196.184 390.736C195.994 390.735 195.812 390.664 195.671 390.538C195.55 390.434 195.464 390.296 195.423 390.143C195.381 389.99 195.387 389.827 195.439 389.677L203.813 363.012C203.861 362.848 203.961 362.703 204.098 362.602C204.236 362.5 204.403 362.446 204.575 362.449H286.05C286.219 362.445 286.385 362.496 286.522 362.595C286.66 362.694 286.761 362.834 286.812 362.996L289.807 372.099C289.839 372.209 289.848 372.324 289.833 372.438C289.819 372.551 289.78 372.66 289.721 372.758C289.662 372.856 289.583 372.941 289.49 373.007C289.396 373.073 289.29 373.119 289.178 373.142C264.188 377.71 198.799 389.776 196.498 390.654C196.399 390.7 196.293 390.728 196.184 390.736ZM205.22 364.055L197.442 388.8C208.398 386.317 272.214 374.632 288.036 371.735L285.521 364.055H205.22Z" fill="#231F20"/>
</svg>
